<svg width="1440" height="967" viewBox="0 0 1440 967" fill="none" xmlns="http://www.w3.org/2000/svg">
<g filter="url(#filter0_f_321_2806)">
<path d="M654.781 420.924C654.781 492.238 543.796 550.049 406.89 550.049C269.984 550.049 159 492.238 159 420.924C159 349.61 269.984 291.798 406.89 291.798C543.796 291.798 654.781 349.61 654.781 420.924Z" fill="#A72C9B"/>
<path d="M741.219 575.874C741.219 647.189 630.235 705 493.329 705C356.423 705 245.439 647.189 245.439 575.874C245.439 504.56 356.423 446.749 493.329 446.749C630.235 446.749 741.219 504.56 741.219 575.874Z" fill="#50A1EC"/>
<path d="M931.981 391.126C931.981 462.44 820.996 520.251 684.09 520.251C547.184 520.251 436.2 462.44 436.2 391.126C436.2 319.811 547.184 262 684.09 262C820.996 262 931.981 319.811 931.981 391.126Z" fill="#712CA7"/>
<path d="M1052.2 575.874C1052.2 647.189 941.216 705 804.31 705C667.404 705 556.419 647.189 556.419 575.874C556.419 504.56 667.404 446.749 804.31 446.749C941.216 446.749 1052.2 504.56 1052.2 575.874Z" fill="#31DE22"/>
<path d="M1237 446.749C1237 518.063 1126.02 575.874 989.11 575.874C852.204 575.874 741.219 518.063 741.219 446.749C741.219 375.435 852.204 317.623 989.11 317.623C1126.02 317.623 1237 375.435 1237 446.749Z" fill="#DA1212"/>
</g>
<defs>
<filter id="filter0_f_321_2806" x="-102.2" y="0.799988" width="1600.4" height="965.4" filterUnits="userSpaceOnUse" color-interpolation-filters="sRGB">
<feFlood flood-opacity="0" result="BackgroundImageFix"/>
<feBlend mode="normal" in="SourceGraphic" in2="BackgroundImageFix" result="shape"/>
<feGaussianBlur stdDeviation="130.6" result="effect1_foregroundBlur_321_2806"/>
</filter>
</defs>
</svg>
