<svg width="1440" height="1079" viewBox="0 0 1440 1079" fill="none" xmlns="http://www.w3.org/2000/svg">
<g filter="url(#filter0_f_327_2937)">
<path d="M665.876 461.103C665.876 550.447 526.888 622.874 355.438 622.874C183.988 622.874 45 550.447 45 461.103C45 371.759 183.988 299.332 355.438 299.332C526.888 299.332 665.876 371.759 665.876 461.103Z" fill="#A72C9B"/>
<path d="M774.124 655.229C774.124 744.573 635.137 817 463.687 817C292.237 817 153.249 744.573 153.249 655.229C153.249 565.885 292.237 493.457 463.687 493.457C635.137 493.457 774.124 565.885 774.124 655.229Z" fill="#50A1EC"/>
<path d="M1013.02 423.771C1013.02 513.115 874.031 585.543 702.581 585.543C531.131 585.543 392.143 513.115 392.143 423.771C392.143 334.427 531.131 262 702.581 262C874.031 262 1013.02 334.427 1013.02 423.771Z" fill="#712CA7"/>
<path d="M1163.57 655.229C1163.57 744.573 1024.58 817 853.134 817C681.684 817 542.696 744.573 542.696 655.229C542.696 565.885 681.684 493.457 853.134 493.457C1024.58 493.457 1163.57 565.885 1163.57 655.229Z" fill="#31DE22"/>
<path d="M1395 493.457C1395 582.801 1256.01 655.229 1084.56 655.229C913.112 655.229 774.124 582.801 774.124 493.457C774.124 404.114 913.112 331.686 1084.56 331.686C1256.01 331.686 1395 404.114 1395 493.457Z" fill="#DA1212"/>
</g>
<g opacity="0.5">
<mask id="path-2-outside-1_327_2937" maskUnits="userSpaceOnUse" x="212" y="297" width="727" height="479" fill="black">
<rect fill="white" x="212" y="297" width="727" height="479"/>
<path d="M268.399 343.92C273.604 345.029 277.785 347.632 280.943 351.728C284.1 355.739 285.679 360.347 285.679 365.552C285.679 373.061 283.033 379.035 277.743 383.472C272.537 387.824 265.241 390 255.855 390H213.999V300.144H254.447C263.577 300.144 270.703 302.235 275.823 306.416C281.028 310.597 283.631 316.272 283.631 323.44C283.631 328.731 282.223 333.125 279.407 336.624C276.676 340.123 273.007 342.555 268.399 343.92ZM235.887 336.496H250.223C253.807 336.496 256.537 335.728 258.415 334.192C260.377 332.571 261.359 330.224 261.359 327.152C261.359 324.08 260.377 321.733 258.415 320.112C256.537 318.491 253.807 317.68 250.223 317.68H235.887V336.496ZM252.015 372.336C255.684 372.336 258.5 371.525 260.463 369.904C262.511 368.197 263.535 365.765 263.535 362.608C263.535 359.451 262.468 356.976 260.335 355.184C258.287 353.392 255.428 352.496 251.759 352.496H235.887V372.336H252.015ZM354.31 374.128H320.774L315.398 390H292.486L324.998 300.144H350.342L382.854 390H359.686L354.31 374.128ZM348.678 357.232L337.542 324.336L326.534 357.232H348.678ZM452.396 328.56C450.775 325.573 448.429 323.312 445.357 321.776C442.37 320.155 438.829 319.344 434.733 319.344C427.65 319.344 421.975 321.691 417.708 326.384C413.442 330.992 411.309 337.179 411.309 344.944C411.309 353.221 413.527 359.707 417.965 364.4C422.487 369.008 428.674 371.312 436.525 371.312C441.901 371.312 446.423 369.947 450.093 367.216C453.847 364.485 456.578 360.56 458.285 355.44H430.509V339.312H478.125V359.664C476.503 365.125 473.73 370.203 469.805 374.896C465.965 379.589 461.058 383.387 455.085 386.288C449.111 389.189 442.37 390.64 434.861 390.64C425.986 390.64 418.05 388.72 411.053 384.88C404.141 380.955 398.722 375.536 394.797 368.624C390.957 361.712 389.036 353.819 389.036 344.944C389.036 336.069 390.957 328.176 394.797 321.264C398.722 314.267 404.141 308.848 411.053 305.008C417.965 301.083 425.858 299.12 434.733 299.12C445.485 299.12 454.53 301.723 461.869 306.928C469.293 312.133 474.199 319.344 476.589 328.56H452.396ZM512.137 300.144V390H490.249V300.144H512.137ZM587.636 390.896C581.065 390.896 575.177 389.829 569.972 387.696C564.766 385.563 560.585 382.405 557.428 378.224C554.356 374.043 552.734 369.008 552.564 363.12H575.86C576.201 366.448 577.353 369.008 579.316 370.8C581.278 372.507 583.838 373.36 586.996 373.36C590.238 373.36 592.798 372.635 594.676 371.184C596.553 369.648 597.492 367.557 597.492 364.912C597.492 362.693 596.724 360.859 595.188 359.408C593.737 357.957 591.902 356.763 589.684 355.824C587.55 354.885 584.478 353.819 580.468 352.624C574.665 350.832 569.929 349.04 566.26 347.248C562.59 345.456 559.433 342.811 556.788 339.312C554.142 335.813 552.82 331.248 552.82 325.616C552.82 317.253 555.849 310.725 561.908 306.032C567.966 301.253 575.86 298.864 585.588 298.864C595.486 298.864 603.465 301.253 609.524 306.032C615.582 310.725 618.825 317.296 619.252 325.744H595.572C595.401 322.843 594.334 320.581 592.372 318.96C590.409 317.253 587.892 316.4 584.819 316.4C582.174 316.4 580.041 317.125 578.42 318.576C576.798 319.941 575.988 321.947 575.988 324.592C575.988 327.493 577.353 329.755 580.083 331.376C582.814 332.997 587.081 334.747 592.884 336.624C598.686 338.587 603.38 340.464 606.964 342.256C610.633 344.048 613.79 346.651 616.436 350.064C619.081 353.477 620.404 357.872 620.404 363.248C620.404 368.368 619.081 373.019 616.436 377.2C613.876 381.381 610.121 384.709 605.172 387.184C600.222 389.659 594.377 390.896 587.636 390.896ZM655.762 317.68V335.856H685.074V352.752H655.762V372.464H688.914V390H633.874V300.144H688.914V317.68H655.762ZM767.764 300.144V317.68H743.956V390H722.068V317.68H698.26V300.144H767.764ZM800.253 300.144V353.904C800.253 359.28 801.575 363.419 804.221 366.32C806.866 369.221 810.749 370.672 815.869 370.672C820.989 370.672 824.914 369.221 827.645 366.32C830.375 363.419 831.741 359.28 831.741 353.904V300.144H853.629V353.776C853.629 361.797 851.922 368.581 848.509 374.128C845.095 379.675 840.487 383.856 834.685 386.672C828.967 389.488 822.567 390.896 815.485 390.896C808.402 390.896 802.045 389.531 796.413 386.8C790.866 383.984 786.471 379.803 783.229 374.256C779.986 368.624 778.365 361.797 778.365 353.776V300.144H800.253ZM937.479 329.072C937.479 334.277 936.284 339.056 933.895 343.408C931.505 347.675 927.836 351.131 922.887 353.776C917.937 356.421 911.793 357.744 904.455 357.744H890.887V390H868.999V300.144H904.455C911.623 300.144 917.681 301.381 922.631 303.856C927.58 306.331 931.292 309.744 933.767 314.096C936.241 318.448 937.479 323.44 937.479 329.072ZM902.791 340.336C906.972 340.336 910.087 339.355 912.135 337.392C914.183 335.429 915.207 332.656 915.207 329.072C915.207 325.488 914.183 322.715 912.135 320.752C910.087 318.789 906.972 317.808 902.791 317.808H890.887V340.336H902.791ZM268.399 535.92C273.604 537.029 277.785 539.632 280.943 543.728C284.1 547.739 285.679 552.347 285.679 557.552C285.679 565.061 283.033 571.035 277.743 575.472C272.537 579.824 265.241 582 255.855 582H213.999V492.144H254.447C263.577 492.144 270.703 494.235 275.823 498.416C281.028 502.597 283.631 508.272 283.631 515.44C283.631 520.731 282.223 525.125 279.407 528.624C276.676 532.123 273.007 534.555 268.399 535.92ZM235.887 528.496H250.223C253.807 528.496 256.537 527.728 258.415 526.192C260.377 524.571 261.359 522.224 261.359 519.152C261.359 516.08 260.377 513.733 258.415 512.112C256.537 510.491 253.807 509.68 250.223 509.68H235.887V528.496ZM252.015 564.336C255.684 564.336 258.5 563.525 260.463 561.904C262.511 560.197 263.535 557.765 263.535 554.608C263.535 551.451 262.468 548.976 260.335 547.184C258.287 545.392 255.428 544.496 251.759 544.496H235.887V564.336H252.015ZM354.31 566.128H320.774L315.398 582H292.486L324.998 492.144H350.342L382.854 582H359.686L354.31 566.128ZM348.678 549.232L337.542 516.336L326.534 549.232H348.678ZM452.396 520.56C450.775 517.573 448.429 515.312 445.357 513.776C442.37 512.155 438.829 511.344 434.733 511.344C427.65 511.344 421.975 513.691 417.708 518.384C413.442 522.992 411.309 529.179 411.309 536.944C411.309 545.221 413.527 551.707 417.965 556.4C422.487 561.008 428.674 563.312 436.525 563.312C441.901 563.312 446.423 561.947 450.093 559.216C453.847 556.485 456.578 552.56 458.285 547.44H430.509V531.312H478.125V551.664C476.503 557.125 473.73 562.203 469.805 566.896C465.965 571.589 461.058 575.387 455.085 578.288C449.111 581.189 442.37 582.64 434.861 582.64C425.986 582.64 418.05 580.72 411.053 576.88C404.141 572.955 398.722 567.536 394.797 560.624C390.957 553.712 389.036 545.819 389.036 536.944C389.036 528.069 390.957 520.176 394.797 513.264C398.722 506.267 404.141 500.848 411.053 497.008C417.965 493.083 425.858 491.12 434.733 491.12C445.485 491.12 454.53 493.723 461.869 498.928C469.293 504.133 474.199 511.344 476.589 520.56H452.396ZM512.137 492.144V582H490.249V492.144H512.137ZM587.636 582.896C581.065 582.896 575.177 581.829 569.972 579.696C564.766 577.563 560.585 574.405 557.428 570.224C554.356 566.043 552.734 561.008 552.564 555.12H575.86C576.201 558.448 577.353 561.008 579.316 562.8C581.278 564.507 583.838 565.36 586.996 565.36C590.238 565.36 592.798 564.635 594.676 563.184C596.553 561.648 597.492 559.557 597.492 556.912C597.492 554.693 596.724 552.859 595.188 551.408C593.737 549.957 591.902 548.763 589.684 547.824C587.55 546.885 584.478 545.819 580.468 544.624C574.665 542.832 569.929 541.04 566.26 539.248C562.59 537.456 559.433 534.811 556.788 531.312C554.142 527.813 552.82 523.248 552.82 517.616C552.82 509.253 555.849 502.725 561.908 498.032C567.966 493.253 575.86 490.864 585.588 490.864C595.486 490.864 603.465 493.253 609.524 498.032C615.582 502.725 618.825 509.296 619.252 517.744H595.572C595.401 514.843 594.334 512.581 592.372 510.96C590.409 509.253 587.892 508.4 584.819 508.4C582.174 508.4 580.041 509.125 578.42 510.576C576.798 511.941 575.988 513.947 575.988 516.592C575.988 519.493 577.353 521.755 580.083 523.376C582.814 524.997 587.081 526.747 592.884 528.624C598.686 530.587 603.38 532.464 606.964 534.256C610.633 536.048 613.79 538.651 616.436 542.064C619.081 545.477 620.404 549.872 620.404 555.248C620.404 560.368 619.081 565.019 616.436 569.2C613.876 573.381 610.121 576.709 605.172 579.184C600.222 581.659 594.377 582.896 587.636 582.896ZM655.762 509.68V527.856H685.074V544.752H655.762V564.464H688.914V582H633.874V492.144H688.914V509.68H655.762ZM767.764 492.144V509.68H743.956V582H722.068V509.68H698.26V492.144H767.764ZM800.253 492.144V545.904C800.253 551.28 801.575 555.419 804.221 558.32C806.866 561.221 810.749 562.672 815.869 562.672C820.989 562.672 824.914 561.221 827.645 558.32C830.375 555.419 831.741 551.28 831.741 545.904V492.144H853.629V545.776C853.629 553.797 851.922 560.581 848.509 566.128C845.095 571.675 840.487 575.856 834.685 578.672C828.967 581.488 822.567 582.896 815.485 582.896C808.402 582.896 802.045 581.531 796.413 578.8C790.866 575.984 786.471 571.803 783.229 566.256C779.986 560.624 778.365 553.797 778.365 545.776V492.144H800.253ZM937.479 521.072C937.479 526.277 936.284 531.056 933.895 535.408C931.505 539.675 927.836 543.131 922.887 545.776C917.937 548.421 911.793 549.744 904.455 549.744H890.887V582H868.999V492.144H904.455C911.623 492.144 917.681 493.381 922.631 495.856C927.58 498.331 931.292 501.744 933.767 506.096C936.241 510.448 937.479 515.44 937.479 521.072ZM902.791 532.336C906.972 532.336 910.087 531.355 912.135 529.392C914.183 527.429 915.207 524.656 915.207 521.072C915.207 517.488 914.183 514.715 912.135 512.752C910.087 510.789 906.972 509.808 902.791 509.808H890.887V532.336H902.791ZM268.399 727.92C273.604 729.029 277.785 731.632 280.943 735.728C284.1 739.739 285.679 744.347 285.679 749.552C285.679 757.061 283.033 763.035 277.743 767.472C272.537 771.824 265.241 774 255.855 774H213.999V684.144H254.447C263.577 684.144 270.703 686.235 275.823 690.416C281.028 694.597 283.631 700.272 283.631 707.44C283.631 712.731 282.223 717.125 279.407 720.624C276.676 724.123 273.007 726.555 268.399 727.92ZM235.887 720.496H250.223C253.807 720.496 256.537 719.728 258.415 718.192C260.377 716.571 261.359 714.224 261.359 711.152C261.359 708.08 260.377 705.733 258.415 704.112C256.537 702.491 253.807 701.68 250.223 701.68H235.887V720.496ZM252.015 756.336C255.684 756.336 258.5 755.525 260.463 753.904C262.511 752.197 263.535 749.765 263.535 746.608C263.535 743.451 262.468 740.976 260.335 739.184C258.287 737.392 255.428 736.496 251.759 736.496H235.887V756.336H252.015ZM354.31 758.128H320.774L315.398 774H292.486L324.998 684.144H350.342L382.854 774H359.686L354.31 758.128ZM348.678 741.232L337.542 708.336L326.534 741.232H348.678ZM452.396 712.56C450.775 709.573 448.429 707.312 445.357 705.776C442.37 704.155 438.829 703.344 434.733 703.344C427.65 703.344 421.975 705.691 417.708 710.384C413.442 714.992 411.309 721.179 411.309 728.944C411.309 737.221 413.527 743.707 417.965 748.4C422.487 753.008 428.674 755.312 436.525 755.312C441.901 755.312 446.423 753.947 450.093 751.216C453.847 748.485 456.578 744.56 458.285 739.44H430.509V723.312H478.125V743.664C476.503 749.125 473.73 754.203 469.805 758.896C465.965 763.589 461.058 767.387 455.085 770.288C449.111 773.189 442.37 774.64 434.861 774.64C425.986 774.64 418.05 772.72 411.053 768.88C404.141 764.955 398.722 759.536 394.797 752.624C390.957 745.712 389.036 737.819 389.036 728.944C389.036 720.069 390.957 712.176 394.797 705.264C398.722 698.267 404.141 692.848 411.053 689.008C417.965 685.083 425.858 683.12 434.733 683.12C445.485 683.12 454.53 685.723 461.869 690.928C469.293 696.133 474.199 703.344 476.589 712.56H452.396ZM512.137 684.144V774H490.249V684.144H512.137ZM587.636 774.896C581.065 774.896 575.177 773.829 569.972 771.696C564.766 769.563 560.585 766.405 557.428 762.224C554.356 758.043 552.734 753.008 552.564 747.12H575.86C576.201 750.448 577.353 753.008 579.316 754.8C581.278 756.507 583.838 757.36 586.996 757.36C590.238 757.36 592.798 756.635 594.676 755.184C596.553 753.648 597.492 751.557 597.492 748.912C597.492 746.693 596.724 744.859 595.188 743.408C593.737 741.957 591.902 740.763 589.684 739.824C587.55 738.885 584.478 737.819 580.468 736.624C574.665 734.832 569.929 733.04 566.26 731.248C562.59 729.456 559.433 726.811 556.788 723.312C554.142 719.813 552.82 715.248 552.82 709.616C552.82 701.253 555.849 694.725 561.908 690.032C567.966 685.253 575.86 682.864 585.588 682.864C595.486 682.864 603.465 685.253 609.524 690.032C615.582 694.725 618.825 701.296 619.252 709.744H595.572C595.401 706.843 594.334 704.581 592.372 702.96C590.409 701.253 587.892 700.4 584.819 700.4C582.174 700.4 580.041 701.125 578.42 702.576C576.798 703.941 575.988 705.947 575.988 708.592C575.988 711.493 577.353 713.755 580.083 715.376C582.814 716.997 587.081 718.747 592.884 720.624C598.686 722.587 603.38 724.464 606.964 726.256C610.633 728.048 613.79 730.651 616.436 734.064C619.081 737.477 620.404 741.872 620.404 747.248C620.404 752.368 619.081 757.019 616.436 761.2C613.876 765.381 610.121 768.709 605.172 771.184C600.222 773.659 594.377 774.896 587.636 774.896ZM655.762 701.68V719.856H685.074V736.752H655.762V756.464H688.914V774H633.874V684.144H688.914V701.68H655.762ZM767.764 684.144V701.68H743.956V774H722.068V701.68H698.26V684.144H767.764ZM800.253 684.144V737.904C800.253 743.28 801.575 747.419 804.221 750.32C806.866 753.221 810.749 754.672 815.869 754.672C820.989 754.672 824.914 753.221 827.645 750.32C830.375 747.419 831.741 743.28 831.741 737.904V684.144H853.629V737.776C853.629 745.797 851.922 752.581 848.509 758.128C845.095 763.675 840.487 767.856 834.685 770.672C828.967 773.488 822.567 774.896 815.485 774.896C808.402 774.896 802.045 773.531 796.413 770.8C790.866 767.984 786.471 763.803 783.229 758.256C779.986 752.624 778.365 745.797 778.365 737.776V684.144H800.253ZM937.479 713.072C937.479 718.277 936.284 723.056 933.895 727.408C931.505 731.675 927.836 735.131 922.887 737.776C917.937 740.421 911.793 741.744 904.455 741.744H890.887V774H868.999V684.144H904.455C911.623 684.144 917.681 685.381 922.631 687.856C927.58 690.331 931.292 693.744 933.767 698.096C936.241 702.448 937.479 707.44 937.479 713.072ZM902.791 724.336C906.972 724.336 910.087 723.355 912.135 721.392C914.183 719.429 915.207 716.656 915.207 713.072C915.207 709.488 914.183 706.715 912.135 704.752C910.087 702.789 906.972 701.808 902.791 701.808H890.887V724.336H902.791Z"/>
</mask>
<path d="M268.399 343.92L268.114 342.961L268.19 344.898L268.399 343.92ZM280.943 351.728L280.15 352.339L280.157 352.347L280.943 351.728ZM277.743 383.472L278.384 384.239L278.385 384.238L277.743 383.472ZM213.999 390H212.999V391H213.999V390ZM213.999 300.144V299.144H212.999V300.144H213.999ZM275.823 306.416L275.19 307.191L275.196 307.196L275.823 306.416ZM279.407 336.624L278.627 335.997L278.623 336.003L278.618 336.009L279.407 336.624ZM235.887 336.496H234.887V337.496H235.887V336.496ZM258.415 334.192L259.048 334.966L259.051 334.963L258.415 334.192ZM258.415 320.112L257.761 320.869L257.769 320.876L257.778 320.883L258.415 320.112ZM235.887 317.68V316.68H234.887V317.68H235.887ZM260.463 369.904L261.099 370.675L261.103 370.672L260.463 369.904ZM260.335 355.184L259.676 355.937L259.684 355.943L259.691 355.95L260.335 355.184ZM235.887 352.496V351.496H234.887V352.496H235.887ZM235.887 372.336H234.887V373.336H235.887V372.336ZM268.19 344.898C273.171 345.96 277.142 348.436 280.15 352.339L281.735 351.117C278.428 346.828 274.037 344.099 268.607 342.942L268.19 344.898ZM280.157 352.347C283.172 356.177 284.679 360.566 284.679 365.552H286.679C286.679 360.127 285.027 355.3 281.728 351.109L280.157 352.347ZM284.679 365.552C284.679 372.795 282.142 378.477 277.1 382.706L278.385 384.238C283.924 379.593 286.679 373.328 286.679 365.552H284.679ZM277.101 382.705C272.134 386.858 265.096 389 255.855 389V391C265.386 391 272.94 388.79 278.384 384.239L277.101 382.705ZM255.855 389H213.999V391H255.855V389ZM214.999 390V300.144H212.999V390H214.999ZM213.999 301.144H254.447V299.144H213.999V301.144ZM254.447 301.144C263.434 301.144 270.306 303.202 275.19 307.191L276.455 305.641C271.099 301.267 263.721 299.144 254.447 299.144V301.144ZM275.196 307.196C280.146 311.172 282.631 316.549 282.631 323.44H284.631C284.631 315.995 281.91 310.023 276.449 305.636L275.196 307.196ZM282.631 323.44C282.631 328.545 281.276 332.706 278.627 335.997L280.186 337.251C283.169 333.544 284.631 328.916 284.631 323.44H282.631ZM278.618 336.009C276.026 339.329 272.54 341.65 268.114 342.961L268.683 344.879C273.473 343.459 277.325 340.916 280.195 337.239L278.618 336.009ZM235.887 337.496H250.223V335.496H235.887V337.496ZM250.223 337.496C253.931 337.496 256.924 336.704 259.048 334.966L257.781 333.418C256.151 334.752 253.682 335.496 250.223 335.496V337.496ZM259.051 334.963C261.292 333.112 262.359 330.454 262.359 327.152H260.359C260.359 329.994 259.463 332.029 257.778 333.421L259.051 334.963ZM262.359 327.152C262.359 323.85 261.292 321.192 259.051 319.341L257.778 320.883C259.463 322.275 260.359 324.31 260.359 327.152H262.359ZM259.068 319.355C256.943 317.52 253.942 316.68 250.223 316.68V318.68C253.671 318.68 256.131 319.461 257.761 320.869L259.068 319.355ZM250.223 316.68H235.887V318.68H250.223V316.68ZM234.887 317.68V336.496H236.887V317.68H234.887ZM252.015 373.336C255.816 373.336 258.893 372.498 261.099 370.675L259.826 369.133C258.107 370.553 255.552 371.336 252.015 371.336V373.336ZM261.103 370.672C263.421 368.74 264.535 366.002 264.535 362.608H262.535C262.535 365.529 261.6 367.655 259.822 369.136L261.103 370.672ZM264.535 362.608C264.535 359.199 263.369 356.427 260.978 354.418L259.691 355.95C261.567 357.525 262.535 359.702 262.535 362.608H264.535ZM260.993 354.431C258.707 352.432 255.585 351.496 251.759 351.496V353.496C255.271 353.496 257.866 354.352 259.676 355.937L260.993 354.431ZM251.759 351.496H235.887V353.496H251.759V351.496ZM234.887 352.496V372.336H236.887V352.496H234.887ZM235.887 373.336H252.015V371.336H235.887V373.336ZM354.31 374.128L355.257 373.807L355.027 373.128H354.31V374.128ZM320.774 374.128V373.128H320.056L319.826 373.807L320.774 374.128ZM315.398 390V391H316.115L316.345 390.321L315.398 390ZM292.486 390L291.545 389.66L291.06 391H292.486V390ZM324.998 300.144V299.144H324.296L324.057 299.804L324.998 300.144ZM350.342 300.144L351.282 299.804L351.043 299.144H350.342V300.144ZM382.854 390V391H384.279L383.794 389.66L382.854 390ZM359.686 390L358.738 390.321L358.968 391H359.686V390ZM348.678 357.232V358.232H350.072L349.625 356.911L348.678 357.232ZM337.542 324.336L338.489 324.015L337.536 321.201L336.593 324.019L337.542 324.336ZM326.534 357.232L325.585 356.915L325.144 358.232H326.534V357.232ZM354.31 373.128H320.774V375.128H354.31V373.128ZM319.826 373.807L314.45 389.679L316.345 390.321L321.721 374.449L319.826 373.807ZM315.398 389H292.486V391H315.398V389ZM293.426 390.34L325.938 300.484L324.057 299.804L291.545 389.66L293.426 390.34ZM324.998 301.144H350.342V299.144H324.998V301.144ZM349.401 300.484L381.913 390.34L383.794 389.66L351.282 299.804L349.401 300.484ZM382.854 389H359.686V391H382.854V389ZM360.633 389.679L355.257 373.807L353.362 374.449L358.738 390.321L360.633 389.679ZM349.625 356.911L338.489 324.015L336.594 324.657L347.73 357.553L349.625 356.911ZM336.593 324.019L325.585 356.915L327.482 357.549L338.49 324.653L336.593 324.019ZM326.534 358.232H348.678V356.232H326.534V358.232ZM452.396 328.56L451.518 329.037L451.802 329.56H452.396V328.56ZM445.357 321.776L444.879 322.655L444.894 322.663L444.909 322.67L445.357 321.776ZM417.708 326.384L418.442 327.063L418.448 327.057L417.708 326.384ZM417.965 364.4L417.238 365.087L417.244 365.094L417.251 365.1L417.965 364.4ZM450.093 367.216L449.504 366.407L449.495 366.414L450.093 367.216ZM458.285 355.44L459.233 355.756L459.672 354.44H458.285V355.44ZM430.509 355.44H429.509V356.44H430.509V355.44ZM430.509 339.312V338.312H429.509V339.312H430.509ZM478.125 339.312H479.125V338.312H478.125V339.312ZM478.125 359.664L479.083 359.949L479.125 359.809V359.664H478.125ZM469.805 374.896L469.037 374.254L469.031 374.263L469.805 374.896ZM455.085 386.288L454.648 385.388L454.648 385.388L455.085 386.288ZM411.053 384.88L410.559 385.75L410.565 385.753L410.571 385.757L411.053 384.88ZM394.797 368.624L393.922 369.11L393.927 369.118L394.797 368.624ZM394.797 321.264L393.924 320.775L393.922 320.778L394.797 321.264ZM411.053 305.008L411.538 305.882L411.546 305.878L411.053 305.008ZM461.869 306.928L461.29 307.744L461.294 307.747L461.869 306.928ZM476.589 328.56V329.56H477.881L477.556 328.309L476.589 328.56ZM453.275 328.083C451.555 324.914 449.057 322.508 445.804 320.882L444.909 322.67C447.8 324.116 449.995 326.233 451.518 329.037L453.275 328.083ZM445.834 320.897C442.673 319.182 438.961 318.344 434.733 318.344V320.344C438.696 320.344 442.066 321.128 444.879 322.655L445.834 320.897ZM434.733 318.344C427.405 318.344 421.448 320.784 416.969 325.711L418.448 327.057C422.502 322.597 427.895 320.344 434.733 320.344V318.344ZM416.975 325.705C412.499 330.539 410.309 336.989 410.309 344.944H412.309C412.309 337.368 414.385 331.445 418.442 327.063L416.975 325.705ZM410.309 344.944C410.309 353.402 412.58 360.16 417.238 365.087L418.691 363.713C414.475 359.253 412.309 353.041 412.309 344.944H410.309ZM417.251 365.1C422.001 369.94 428.467 372.312 436.525 372.312V370.312C428.88 370.312 422.973 368.076 418.678 363.7L417.251 365.1ZM436.525 372.312C442.077 372.312 446.819 370.899 450.69 368.018L449.495 366.414C446.028 368.995 441.724 370.312 436.525 370.312V372.312ZM450.681 368.025C454.63 365.152 457.472 361.041 459.233 355.756L457.336 355.124C455.684 360.079 453.064 363.818 449.504 366.407L450.681 368.025ZM458.285 354.44H430.509V356.44H458.285V354.44ZM431.509 355.44V339.312H429.509V355.44H431.509ZM430.509 340.312H478.125V338.312H430.509V340.312ZM477.125 339.312V359.664H479.125V339.312H477.125ZM477.166 359.379C475.586 364.7 472.882 369.658 469.037 374.254L470.572 375.538C474.578 370.747 477.42 365.55 479.083 359.949L477.166 359.379ZM469.031 374.263C465.291 378.834 460.503 382.544 454.648 385.388L455.521 387.188C461.613 384.229 466.638 380.345 470.578 375.529L469.031 374.263ZM454.648 385.388C448.827 388.216 442.238 389.64 434.861 389.64V391.64C442.501 391.64 449.395 390.163 455.521 387.188L454.648 385.388ZM434.861 389.64C426.135 389.64 418.368 387.754 411.534 384.003L410.571 385.757C417.732 389.686 425.837 391.64 434.861 391.64V389.64ZM411.546 384.01C404.791 380.174 399.502 374.885 395.666 368.13L393.927 369.118C397.941 376.187 403.49 381.735 410.559 385.75L411.546 384.01ZM395.671 368.138C391.923 361.392 390.036 353.67 390.036 344.944H388.036C388.036 353.967 389.99 362.032 393.922 369.11L395.671 368.138ZM390.036 344.944C390.036 336.218 391.923 328.496 395.671 321.75L393.922 320.778C389.99 327.856 388.036 335.921 388.036 344.944H390.036ZM395.669 321.753C399.505 314.915 404.791 309.631 411.538 305.882L410.567 304.134C403.49 308.065 397.939 313.618 393.924 320.775L395.669 321.753ZM411.546 305.878C418.291 302.047 426.01 300.12 434.733 300.12V298.12C425.705 298.12 417.638 300.118 410.559 304.138L411.546 305.878ZM434.733 300.12C445.319 300.12 454.151 302.68 461.29 307.744L462.447 306.112C454.908 300.765 445.65 298.12 434.733 298.12V300.12ZM461.294 307.747C468.513 312.808 473.288 319.813 475.621 328.811L477.556 328.309C475.111 318.875 470.072 311.458 462.443 306.109L461.294 307.747ZM476.589 327.56H452.396V329.56H476.589V327.56ZM512.137 300.144H513.137V299.144H512.137V300.144ZM512.137 390V391H513.137V390H512.137ZM490.249 390H489.249V391H490.249V390ZM490.249 300.144V299.144H489.249V300.144H490.249ZM511.137 300.144V390H513.137V300.144H511.137ZM512.137 389H490.249V391H512.137V389ZM491.249 390V300.144H489.249V390H491.249ZM490.249 301.144H512.137V299.144H490.249V301.144ZM569.972 387.696L569.592 388.621L569.592 388.621L569.972 387.696ZM557.428 378.224L556.622 378.816L556.629 378.827L557.428 378.224ZM552.564 363.12V362.12H551.534L551.564 363.149L552.564 363.12ZM575.86 363.12L576.854 363.018L576.762 362.12H575.86V363.12ZM579.316 370.8L578.641 371.538L578.65 371.547L578.659 371.555L579.316 370.8ZM594.676 371.184L595.287 371.975L595.298 371.967L595.309 371.958L594.676 371.184ZM595.188 359.408L594.48 360.115L594.49 360.125L594.501 360.135L595.188 359.408ZM589.684 355.824L589.281 356.739L589.287 356.742L589.294 356.745L589.684 355.824ZM580.468 352.624L580.172 353.58L580.182 353.582L580.468 352.624ZM566.26 347.248L565.821 348.147L566.26 347.248ZM556.788 339.312L557.585 338.709L557.585 338.709L556.788 339.312ZM561.908 306.032L562.52 306.823L562.527 306.817L561.908 306.032ZM609.524 306.032L608.904 306.817L608.911 306.823L609.524 306.032ZM619.252 325.744V326.744H620.303L620.25 325.694L619.252 325.744ZM595.572 325.744L594.573 325.803L594.629 326.744H595.572V325.744ZM592.372 318.96L591.715 319.715L591.725 319.723L591.735 319.731L592.372 318.96ZM578.42 318.576L579.064 319.341L579.075 319.331L579.086 319.321L578.42 318.576ZM580.083 331.376L580.594 330.516L580.594 330.516L580.083 331.376ZM592.884 336.624L593.204 335.677L593.191 335.673L592.884 336.624ZM606.964 342.256L606.516 343.15L606.525 343.155L606.964 342.256ZM616.436 350.064L615.645 350.677L615.645 350.677L616.436 350.064ZM616.436 377.2L615.59 376.665L615.586 376.672L615.583 376.678L616.436 377.2ZM605.172 387.184L604.724 386.29L604.724 386.29L605.172 387.184ZM587.636 389.896C581.173 389.896 575.417 388.847 570.351 386.771L569.592 388.621C574.936 390.812 580.956 391.896 587.636 391.896V389.896ZM570.351 386.771C565.299 384.7 561.267 381.649 558.226 377.621L556.629 378.827C559.903 383.162 564.234 386.425 569.592 388.621L570.351 386.771ZM558.233 377.632C555.297 373.636 553.729 368.804 553.563 363.091L551.564 363.149C551.74 369.212 553.414 374.45 556.622 378.816L558.233 377.632ZM552.564 364.12H575.86V362.12H552.564V364.12ZM574.865 363.222C575.224 366.729 576.454 369.541 578.641 371.538L579.99 370.062C578.252 368.475 577.177 366.167 576.854 363.018L574.865 363.222ZM578.659 371.555C580.841 373.452 583.651 374.36 586.996 374.36V372.36C584.025 372.36 581.715 371.562 579.972 370.045L578.659 371.555ZM586.996 374.36C590.379 374.36 593.18 373.603 595.287 371.975L594.064 370.393C592.416 371.666 590.097 372.36 586.996 372.36V374.36ZM595.309 371.958C597.441 370.213 598.492 367.826 598.492 364.912H596.492C596.492 367.288 595.665 369.083 594.042 370.41L595.309 371.958ZM598.492 364.912C598.492 362.434 597.621 360.331 595.874 358.681L594.501 360.135C595.826 361.386 596.492 362.953 596.492 364.912H598.492ZM595.895 358.701C594.338 357.145 592.39 355.883 590.073 354.903L589.294 356.745C591.414 357.642 593.135 358.77 594.48 360.115L595.895 358.701ZM590.086 354.909C587.896 353.945 584.778 352.864 580.753 351.666L580.182 353.582C584.179 354.773 587.204 355.826 589.281 356.739L590.086 354.909ZM580.763 351.669C574.988 349.885 570.305 348.111 566.698 346.349L565.821 348.147C569.553 349.969 574.342 351.779 580.172 353.579L580.763 351.669ZM566.698 346.349C563.18 344.631 560.143 342.092 557.585 338.709L555.99 339.915C558.723 343.53 562 346.281 565.821 348.147L566.698 346.349ZM557.585 338.709C555.104 335.428 553.82 331.093 553.82 325.616H551.82C551.82 331.403 553.18 336.199 555.99 339.915L557.585 338.709ZM553.82 325.616C553.82 317.53 556.73 311.307 562.52 306.823L561.295 305.241C554.967 310.143 551.82 316.976 551.82 325.616H553.82ZM562.527 306.817C568.367 302.211 576.025 299.864 585.588 299.864V297.864C575.694 297.864 567.565 300.296 561.288 305.247L562.527 306.817ZM585.588 299.864C595.326 299.864 603.067 302.213 608.904 306.817L610.143 305.247C603.863 300.294 595.647 297.864 585.588 297.864V299.864ZM608.911 306.823C614.714 311.317 617.839 317.604 618.253 325.794L620.25 325.694C619.811 316.988 616.451 310.133 610.136 305.241L608.911 306.823ZM619.252 324.744H595.572V326.744H619.252V324.744ZM596.57 325.685C596.385 322.55 595.216 320.013 593.008 318.189L591.735 319.731C593.452 321.15 594.416 323.135 594.573 325.803L596.57 325.685ZM593.028 318.205C590.851 316.313 588.087 315.4 584.819 315.4V317.4C587.696 317.4 589.967 318.194 591.715 319.715L593.028 318.205ZM584.819 315.4C581.984 315.4 579.595 316.182 577.753 317.831L579.086 319.321C580.487 318.068 582.365 317.4 584.819 317.4V315.4ZM577.775 317.811C575.874 319.412 574.988 321.731 574.988 324.592H576.988C576.988 322.162 577.722 320.47 579.064 319.341L577.775 317.811ZM574.988 324.592C574.988 327.885 576.574 330.455 579.573 332.236L580.594 330.516C578.132 329.054 576.988 327.102 576.988 324.592H574.988ZM579.573 332.236C582.402 333.916 586.754 335.692 592.576 337.575L593.191 335.673C587.407 333.801 583.226 332.079 580.594 330.516L579.573 332.236ZM592.563 337.571C598.342 339.526 602.989 341.387 606.516 343.15L607.411 341.362C603.77 339.541 599.03 337.647 593.204 335.677L592.563 337.571ZM606.525 343.155C610.049 344.876 613.088 347.377 615.645 350.677L617.226 349.451C614.492 345.924 611.217 343.22 607.402 341.357L606.525 343.155ZM615.645 350.677C618.124 353.875 619.404 358.038 619.404 363.248H621.404C621.404 357.706 620.038 353.079 617.226 349.451L615.645 350.677ZM619.404 363.248C619.404 368.186 618.131 372.65 615.59 376.665L617.281 377.735C620.031 373.388 621.404 368.55 621.404 363.248H619.404ZM615.583 376.678C613.133 380.68 609.528 383.888 604.724 386.29L605.619 388.078C610.713 385.531 614.618 382.083 617.288 377.722L615.583 376.678ZM604.724 386.29C599.941 388.681 594.255 389.896 587.636 389.896V391.896C594.499 391.896 600.503 390.636 605.619 388.078L604.724 386.29ZM655.762 317.68V316.68H654.762V317.68H655.762ZM655.762 335.856H654.762V336.856H655.762V335.856ZM685.074 335.856H686.074V334.856H685.074V335.856ZM685.074 352.752V353.752H686.074V352.752H685.074ZM655.762 352.752V351.752H654.762V352.752H655.762ZM655.762 372.464H654.762V373.464H655.762V372.464ZM688.914 372.464H689.914V371.464H688.914V372.464ZM688.914 390V391H689.914V390H688.914ZM633.874 390H632.874V391H633.874V390ZM633.874 300.144V299.144H632.874V300.144H633.874ZM688.914 300.144H689.914V299.144H688.914V300.144ZM688.914 317.68V318.68H689.914V317.68H688.914ZM654.762 317.68V335.856H656.762V317.68H654.762ZM655.762 336.856H685.074V334.856H655.762V336.856ZM684.074 335.856V352.752H686.074V335.856H684.074ZM685.074 351.752H655.762V353.752H685.074V351.752ZM654.762 352.752V372.464H656.762V352.752H654.762ZM655.762 373.464H688.914V371.464H655.762V373.464ZM687.914 372.464V390H689.914V372.464H687.914ZM688.914 389H633.874V391H688.914V389ZM634.874 390V300.144H632.874V390H634.874ZM633.874 301.144H688.914V299.144H633.874V301.144ZM687.914 300.144V317.68H689.914V300.144H687.914ZM688.914 316.68H655.762V318.68H688.914V316.68ZM767.764 300.144H768.764V299.144H767.764V300.144ZM767.764 317.68V318.68H768.764V317.68H767.764ZM743.956 317.68V316.68H742.956V317.68H743.956ZM743.956 390V391H744.956V390H743.956ZM722.068 390H721.068V391H722.068V390ZM722.068 317.68H723.068V316.68H722.068V317.68ZM698.26 317.68H697.26V318.68H698.26V317.68ZM698.26 300.144V299.144H697.26V300.144H698.26ZM766.764 300.144V317.68H768.764V300.144H766.764ZM767.764 316.68H743.956V318.68H767.764V316.68ZM742.956 317.68V390H744.956V317.68H742.956ZM743.956 389H722.068V391H743.956V389ZM723.068 390V317.68H721.068V390H723.068ZM722.068 316.68H698.26V318.68H722.068V316.68ZM699.26 317.68V300.144H697.26V317.68H699.26ZM698.26 301.144H767.764V299.144H698.26V301.144ZM800.253 300.144H801.253V299.144H800.253V300.144ZM804.221 366.32L803.482 366.994L803.482 366.994L804.221 366.32ZM827.645 366.32L828.373 367.005L828.373 367.005L827.645 366.32ZM831.741 300.144V299.144H830.741V300.144H831.741ZM853.629 300.144H854.629V299.144H853.629V300.144ZM848.509 374.128L849.36 374.652L849.36 374.652L848.509 374.128ZM834.685 386.672L834.248 385.772L834.243 385.775L834.685 386.672ZM796.413 386.8L795.96 387.692L795.968 387.696L795.976 387.7L796.413 386.8ZM783.229 374.256L782.362 374.755L782.365 374.761L783.229 374.256ZM778.365 300.144V299.144H777.365V300.144H778.365ZM799.253 300.144V353.904H801.253V300.144H799.253ZM799.253 353.904C799.253 359.436 800.615 363.849 803.482 366.994L804.959 365.646C802.536 362.988 801.253 359.124 801.253 353.904H799.253ZM803.482 366.994C806.37 370.161 810.558 371.672 815.869 371.672V369.672C810.939 369.672 807.362 368.281 804.959 365.646L803.482 366.994ZM815.869 371.672C821.181 371.672 825.403 370.161 828.373 367.005L826.916 365.635C824.425 368.282 820.796 369.672 815.869 369.672V371.672ZM828.373 367.005C831.332 363.862 832.741 359.444 832.741 353.904H830.741C830.741 359.116 829.419 362.976 826.916 365.635L828.373 367.005ZM832.741 353.904V300.144H830.741V353.904H832.741ZM831.741 301.144H853.629V299.144H831.741V301.144ZM852.629 300.144V353.776H854.629V300.144H852.629ZM852.629 353.776C852.629 361.655 850.953 368.248 847.657 373.604L849.36 374.652C852.891 368.915 854.629 361.94 854.629 353.776H852.629ZM847.657 373.604C844.342 378.99 839.878 383.04 834.248 385.772L835.121 387.572C841.097 384.672 845.848 380.359 849.36 374.652L847.657 373.604ZM834.243 385.775C828.677 388.516 822.431 389.896 815.485 389.896V391.896C822.703 391.896 829.257 390.46 835.126 387.569L834.243 385.775ZM815.485 389.896C808.533 389.896 802.328 388.557 796.849 385.9L795.976 387.7C801.761 390.505 808.271 391.896 815.485 391.896V389.896ZM796.865 385.908C791.496 383.182 787.241 379.138 784.092 373.751L782.365 374.761C785.701 380.467 790.236 384.786 795.96 387.692L796.865 385.908ZM784.095 373.757C780.958 368.309 779.365 361.663 779.365 353.776H777.365C777.365 361.932 779.014 368.939 782.362 374.755L784.095 373.757ZM779.365 353.776V300.144H777.365V353.776H779.365ZM778.365 301.144H800.253V299.144H778.365V301.144ZM933.895 343.408L934.767 343.897L934.771 343.889L933.895 343.408ZM922.887 353.776L922.415 352.894L922.415 352.894L922.887 353.776ZM890.887 357.744V356.744H889.887V357.744H890.887ZM890.887 390V391H891.887V390H890.887ZM868.999 390H867.999V391H868.999V390ZM868.999 300.144V299.144H867.999V300.144H868.999ZM922.631 303.856L923.078 302.962L923.078 302.962L922.631 303.856ZM890.887 317.808V316.808H889.887V317.808H890.887ZM890.887 340.336H889.887V341.336H890.887V340.336ZM936.479 329.072C936.479 334.118 935.322 338.729 933.018 342.927L934.771 343.889C937.245 339.383 938.479 334.437 938.479 329.072H936.479ZM933.022 342.919C930.739 346.996 927.221 350.325 922.415 352.894L923.358 354.658C928.45 351.936 932.271 348.354 934.767 343.897L933.022 342.919ZM922.415 352.894C917.649 355.442 911.678 356.744 904.455 356.744V358.744C911.909 358.744 918.226 357.401 923.358 354.658L922.415 352.894ZM904.455 356.744H890.887V358.744H904.455V356.744ZM889.887 357.744V390H891.887V357.744H889.887ZM890.887 389H868.999V391H890.887V389ZM869.999 390V300.144H867.999V390H869.999ZM868.999 301.144H904.455V299.144H868.999V301.144ZM904.455 301.144C911.512 301.144 917.408 302.363 922.183 304.75L923.078 302.962C917.955 300.4 911.733 299.144 904.455 299.144V301.144ZM922.183 304.75C926.975 307.146 930.531 310.428 932.897 314.59L934.636 313.602C932.053 309.059 928.185 305.515 923.078 302.962L922.183 304.75ZM932.897 314.59C935.276 318.774 936.479 323.591 936.479 329.072H938.479C938.479 323.289 937.206 318.122 934.636 313.602L932.897 314.59ZM902.791 341.336C907.109 341.336 910.52 340.324 912.826 338.114L911.443 336.67C909.653 338.385 906.835 339.336 902.791 339.336V341.336ZM912.826 338.114C915.12 335.916 916.207 332.852 916.207 329.072H914.207C914.207 332.46 913.245 334.943 911.443 336.67L912.826 338.114ZM916.207 329.072C916.207 325.292 915.12 322.228 912.826 320.03L911.443 321.474C913.245 323.201 914.207 325.684 914.207 329.072H916.207ZM912.826 320.03C910.52 317.82 907.109 316.808 902.791 316.808V318.808C906.835 318.808 909.653 319.759 911.443 321.474L912.826 320.03ZM902.791 316.808H890.887V318.808H902.791V316.808ZM889.887 317.808V340.336H891.887V317.808H889.887ZM890.887 341.336H902.791V339.336H890.887V341.336ZM268.399 535.92L268.114 534.961L268.19 536.898L268.399 535.92ZM280.943 543.728L280.15 544.339L280.157 544.347L280.943 543.728ZM277.743 575.472L278.384 576.239L278.385 576.238L277.743 575.472ZM213.999 582H212.999V583H213.999V582ZM213.999 492.144V491.144H212.999V492.144H213.999ZM275.823 498.416L275.19 499.191L275.196 499.196L275.823 498.416ZM279.407 528.624L278.627 527.997L278.623 528.003L278.618 528.009L279.407 528.624ZM235.887 528.496H234.887V529.496H235.887V528.496ZM258.415 526.192L259.048 526.966L259.051 526.963L258.415 526.192ZM258.415 512.112L257.761 512.869L257.769 512.876L257.778 512.883L258.415 512.112ZM235.887 509.68V508.68H234.887V509.68H235.887ZM260.463 561.904L261.099 562.675L261.103 562.672L260.463 561.904ZM260.335 547.184L259.676 547.937L259.684 547.943L259.691 547.95L260.335 547.184ZM235.887 544.496V543.496H234.887V544.496H235.887ZM235.887 564.336H234.887V565.336H235.887V564.336ZM268.19 536.898C273.171 537.96 277.142 540.436 280.15 544.339L281.735 543.117C278.428 538.828 274.037 536.099 268.607 534.942L268.19 536.898ZM280.157 544.347C283.172 548.177 284.679 552.566 284.679 557.552H286.679C286.679 552.127 285.027 547.3 281.728 543.109L280.157 544.347ZM284.679 557.552C284.679 564.795 282.142 570.477 277.1 574.706L278.385 576.238C283.924 571.593 286.679 565.328 286.679 557.552H284.679ZM277.101 574.705C272.134 578.858 265.096 581 255.855 581V583C265.386 583 272.94 580.79 278.384 576.239L277.101 574.705ZM255.855 581H213.999V583H255.855V581ZM214.999 582V492.144H212.999V582H214.999ZM213.999 493.144H254.447V491.144H213.999V493.144ZM254.447 493.144C263.434 493.144 270.306 495.202 275.19 499.191L276.455 497.641C271.099 493.267 263.721 491.144 254.447 491.144V493.144ZM275.196 499.196C280.146 503.172 282.631 508.549 282.631 515.44H284.631C284.631 507.995 281.91 502.023 276.449 497.636L275.196 499.196ZM282.631 515.44C282.631 520.545 281.276 524.706 278.627 527.997L280.186 529.251C283.169 525.544 284.631 520.916 284.631 515.44H282.631ZM278.618 528.009C276.026 531.329 272.54 533.65 268.114 534.961L268.683 536.879C273.473 535.459 277.325 532.916 280.195 529.239L278.618 528.009ZM235.887 529.496H250.223V527.496H235.887V529.496ZM250.223 529.496C253.931 529.496 256.924 528.704 259.048 526.966L257.781 525.418C256.151 526.752 253.682 527.496 250.223 527.496V529.496ZM259.051 526.963C261.292 525.112 262.359 522.454 262.359 519.152H260.359C260.359 521.994 259.463 524.029 257.778 525.421L259.051 526.963ZM262.359 519.152C262.359 515.85 261.292 513.192 259.051 511.341L257.778 512.883C259.463 514.275 260.359 516.31 260.359 519.152H262.359ZM259.068 511.355C256.943 509.52 253.942 508.68 250.223 508.68V510.68C253.671 510.68 256.131 511.461 257.761 512.869L259.068 511.355ZM250.223 508.68H235.887V510.68H250.223V508.68ZM234.887 509.68V528.496H236.887V509.68H234.887ZM252.015 565.336C255.816 565.336 258.893 564.498 261.099 562.675L259.826 561.133C258.107 562.553 255.552 563.336 252.015 563.336V565.336ZM261.103 562.672C263.421 560.74 264.535 558.002 264.535 554.608H262.535C262.535 557.529 261.6 559.655 259.822 561.136L261.103 562.672ZM264.535 554.608C264.535 551.199 263.369 548.427 260.978 546.418L259.691 547.95C261.567 549.525 262.535 551.702 262.535 554.608H264.535ZM260.993 546.431C258.707 544.432 255.585 543.496 251.759 543.496V545.496C255.271 545.496 257.866 546.352 259.676 547.937L260.993 546.431ZM251.759 543.496H235.887V545.496H251.759V543.496ZM234.887 544.496V564.336H236.887V544.496H234.887ZM235.887 565.336H252.015V563.336H235.887V565.336ZM354.31 566.128L355.257 565.807L355.027 565.128H354.31V566.128ZM320.774 566.128V565.128H320.056L319.826 565.807L320.774 566.128ZM315.398 582V583H316.115L316.345 582.321L315.398 582ZM292.486 582L291.545 581.66L291.06 583H292.486V582ZM324.998 492.144V491.144H324.296L324.057 491.804L324.998 492.144ZM350.342 492.144L351.282 491.804L351.043 491.144H350.342V492.144ZM382.854 582V583H384.279L383.794 581.66L382.854 582ZM359.686 582L358.738 582.321L358.968 583H359.686V582ZM348.678 549.232V550.232H350.072L349.625 548.911L348.678 549.232ZM337.542 516.336L338.489 516.015L337.536 513.201L336.593 516.019L337.542 516.336ZM326.534 549.232L325.585 548.915L325.144 550.232H326.534V549.232ZM354.31 565.128H320.774V567.128H354.31V565.128ZM319.826 565.807L314.45 581.679L316.345 582.321L321.721 566.449L319.826 565.807ZM315.398 581H292.486V583H315.398V581ZM293.426 582.34L325.938 492.484L324.057 491.804L291.545 581.66L293.426 582.34ZM324.998 493.144H350.342V491.144H324.998V493.144ZM349.401 492.484L381.913 582.34L383.794 581.66L351.282 491.804L349.401 492.484ZM382.854 581H359.686V583H382.854V581ZM360.633 581.679L355.257 565.807L353.362 566.449L358.738 582.321L360.633 581.679ZM349.625 548.911L338.489 516.015L336.594 516.657L347.73 549.553L349.625 548.911ZM336.593 516.019L325.585 548.915L327.482 549.549L338.49 516.653L336.593 516.019ZM326.534 550.232H348.678V548.232H326.534V550.232ZM452.396 520.56L451.518 521.037L451.802 521.56H452.396V520.56ZM445.357 513.776L444.879 514.655L444.894 514.663L444.909 514.67L445.357 513.776ZM417.708 518.384L418.442 519.063L418.448 519.057L417.708 518.384ZM417.965 556.4L417.238 557.087L417.244 557.094L417.251 557.1L417.965 556.4ZM450.093 559.216L449.504 558.407L449.495 558.414L450.093 559.216ZM458.285 547.44L459.233 547.756L459.672 546.44H458.285V547.44ZM430.509 547.44H429.509V548.44H430.509V547.44ZM430.509 531.312V530.312H429.509V531.312H430.509ZM478.125 531.312H479.125V530.312H478.125V531.312ZM478.125 551.664L479.083 551.949L479.125 551.809V551.664H478.125ZM469.805 566.896L469.037 566.254L469.031 566.263L469.805 566.896ZM455.085 578.288L454.648 577.388L454.648 577.388L455.085 578.288ZM411.053 576.88L410.559 577.75L410.565 577.753L410.571 577.757L411.053 576.88ZM394.797 560.624L393.922 561.11L393.927 561.118L394.797 560.624ZM394.797 513.264L393.924 512.775L393.922 512.778L394.797 513.264ZM411.053 497.008L411.538 497.882L411.546 497.878L411.053 497.008ZM461.869 498.928L461.29 499.744L461.294 499.747L461.869 498.928ZM476.589 520.56V521.56H477.881L477.556 520.309L476.589 520.56ZM453.275 520.083C451.555 516.914 449.057 514.508 445.804 512.882L444.909 514.67C447.8 516.116 449.995 518.233 451.518 521.037L453.275 520.083ZM445.834 512.897C442.673 511.182 438.961 510.344 434.733 510.344V512.344C438.696 512.344 442.066 513.128 444.879 514.655L445.834 512.897ZM434.733 510.344C427.405 510.344 421.448 512.784 416.969 517.711L418.448 519.057C422.502 514.597 427.895 512.344 434.733 512.344V510.344ZM416.975 517.705C412.499 522.539 410.309 528.989 410.309 536.944H412.309C412.309 529.368 414.385 523.445 418.442 519.063L416.975 517.705ZM410.309 536.944C410.309 545.402 412.58 552.16 417.238 557.087L418.691 555.713C414.475 551.253 412.309 545.041 412.309 536.944H410.309ZM417.251 557.1C422.001 561.94 428.467 564.312 436.525 564.312V562.312C428.88 562.312 422.973 560.076 418.678 555.7L417.251 557.1ZM436.525 564.312C442.077 564.312 446.819 562.899 450.69 560.018L449.495 558.414C446.028 560.995 441.724 562.312 436.525 562.312V564.312ZM450.681 560.025C454.63 557.152 457.472 553.041 459.233 547.756L457.336 547.124C455.684 552.079 453.064 555.818 449.504 558.407L450.681 560.025ZM458.285 546.44H430.509V548.44H458.285V546.44ZM431.509 547.44V531.312H429.509V547.44H431.509ZM430.509 532.312H478.125V530.312H430.509V532.312ZM477.125 531.312V551.664H479.125V531.312H477.125ZM477.166 551.379C475.586 556.7 472.882 561.658 469.037 566.254L470.572 567.538C474.578 562.747 477.42 557.55 479.083 551.949L477.166 551.379ZM469.031 566.263C465.291 570.834 460.503 574.544 454.648 577.388L455.521 579.188C461.613 576.229 466.638 572.345 470.578 567.529L469.031 566.263ZM454.648 577.388C448.827 580.216 442.238 581.64 434.861 581.64V583.64C442.501 583.64 449.395 582.163 455.521 579.188L454.648 577.388ZM434.861 581.64C426.135 581.64 418.368 579.754 411.534 576.003L410.571 577.757C417.732 581.686 425.837 583.64 434.861 583.64V581.64ZM411.546 576.01C404.791 572.174 399.502 566.885 395.666 560.13L393.927 561.118C397.941 568.187 403.49 573.735 410.559 577.75L411.546 576.01ZM395.671 560.138C391.923 553.392 390.036 545.67 390.036 536.944H388.036C388.036 545.967 389.99 554.032 393.922 561.11L395.671 560.138ZM390.036 536.944C390.036 528.218 391.923 520.496 395.671 513.75L393.922 512.778C389.99 519.856 388.036 527.921 388.036 536.944H390.036ZM395.669 513.753C399.505 506.915 404.791 501.631 411.538 497.882L410.567 496.134C403.49 500.065 397.939 505.618 393.924 512.775L395.669 513.753ZM411.546 497.878C418.291 494.047 426.01 492.12 434.733 492.12V490.12C425.705 490.12 417.638 492.118 410.559 496.138L411.546 497.878ZM434.733 492.12C445.319 492.12 454.151 494.68 461.29 499.744L462.447 498.112C454.908 492.765 445.65 490.12 434.733 490.12V492.12ZM461.294 499.747C468.513 504.808 473.288 511.813 475.621 520.811L477.556 520.309C475.111 510.875 470.072 503.458 462.443 498.109L461.294 499.747ZM476.589 519.56H452.396V521.56H476.589V519.56ZM512.137 492.144H513.137V491.144H512.137V492.144ZM512.137 582V583H513.137V582H512.137ZM490.249 582H489.249V583H490.249V582ZM490.249 492.144V491.144H489.249V492.144H490.249ZM511.137 492.144V582H513.137V492.144H511.137ZM512.137 581H490.249V583H512.137V581ZM491.249 582V492.144H489.249V582H491.249ZM490.249 493.144H512.137V491.144H490.249V493.144ZM569.972 579.696L569.592 580.621L569.592 580.621L569.972 579.696ZM557.428 570.224L556.622 570.816L556.629 570.827L557.428 570.224ZM552.564 555.12V554.12H551.534L551.564 555.149L552.564 555.12ZM575.86 555.12L576.854 555.018L576.762 554.12H575.86V555.12ZM579.316 562.8L578.641 563.538L578.65 563.547L578.659 563.555L579.316 562.8ZM594.676 563.184L595.287 563.975L595.298 563.967L595.309 563.958L594.676 563.184ZM595.188 551.408L594.48 552.115L594.49 552.125L594.501 552.135L595.188 551.408ZM589.684 547.824L589.281 548.739L589.287 548.742L589.294 548.745L589.684 547.824ZM580.468 544.624L580.172 545.58L580.182 545.582L580.468 544.624ZM566.26 539.248L565.821 540.147L566.26 539.248ZM556.788 531.312L557.585 530.709L557.585 530.709L556.788 531.312ZM561.908 498.032L562.52 498.823L562.527 498.817L561.908 498.032ZM609.524 498.032L608.904 498.817L608.911 498.823L609.524 498.032ZM619.252 517.744V518.744H620.303L620.25 517.694L619.252 517.744ZM595.572 517.744L594.573 517.803L594.629 518.744H595.572V517.744ZM592.372 510.96L591.715 511.715L591.725 511.723L591.735 511.731L592.372 510.96ZM578.42 510.576L579.064 511.341L579.075 511.331L579.086 511.321L578.42 510.576ZM580.083 523.376L580.594 522.516L580.594 522.516L580.083 523.376ZM592.884 528.624L593.204 527.677L593.191 527.673L592.884 528.624ZM606.964 534.256L606.516 535.15L606.525 535.155L606.964 534.256ZM616.436 542.064L615.645 542.677L615.645 542.677L616.436 542.064ZM616.436 569.2L615.59 568.665L615.586 568.672L615.583 568.678L616.436 569.2ZM605.172 579.184L604.724 578.29L604.724 578.29L605.172 579.184ZM587.636 581.896C581.173 581.896 575.417 580.847 570.351 578.771L569.592 580.621C574.936 582.812 580.956 583.896 587.636 583.896V581.896ZM570.351 578.771C565.299 576.7 561.267 573.649 558.226 569.621L556.629 570.827C559.903 575.162 564.234 578.425 569.592 580.621L570.351 578.771ZM558.233 569.632C555.297 565.636 553.729 560.804 553.563 555.091L551.564 555.149C551.74 561.212 553.414 566.45 556.622 570.816L558.233 569.632ZM552.564 556.12H575.86V554.12H552.564V556.12ZM574.865 555.222C575.224 558.729 576.454 561.541 578.641 563.538L579.99 562.062C578.252 560.475 577.177 558.167 576.854 555.018L574.865 555.222ZM578.659 563.555C580.841 565.452 583.651 566.36 586.996 566.36V564.36C584.025 564.36 581.715 563.562 579.972 562.045L578.659 563.555ZM586.996 566.36C590.379 566.36 593.18 565.603 595.287 563.975L594.064 562.393C592.416 563.666 590.097 564.36 586.996 564.36V566.36ZM595.309 563.958C597.441 562.213 598.492 559.826 598.492 556.912H596.492C596.492 559.288 595.665 561.083 594.042 562.41L595.309 563.958ZM598.492 556.912C598.492 554.434 597.621 552.331 595.874 550.681L594.501 552.135C595.826 553.386 596.492 554.953 596.492 556.912H598.492ZM595.895 550.701C594.338 549.145 592.39 547.883 590.073 546.903L589.294 548.745C591.414 549.642 593.135 550.77 594.48 552.115L595.895 550.701ZM590.086 546.909C587.896 545.945 584.778 544.864 580.753 543.666L580.182 545.582C584.179 546.773 587.204 547.826 589.281 548.739L590.086 546.909ZM580.763 543.669C574.988 541.885 570.305 540.111 566.698 538.349L565.821 540.147C569.553 541.969 574.342 543.779 580.172 545.579L580.763 543.669ZM566.698 538.349C563.18 536.631 560.143 534.092 557.585 530.709L555.99 531.915C558.723 535.53 562 538.281 565.821 540.147L566.698 538.349ZM557.585 530.709C555.104 527.428 553.82 523.093 553.82 517.616H551.82C551.82 523.403 553.18 528.199 555.99 531.915L557.585 530.709ZM553.82 517.616C553.82 509.53 556.73 503.307 562.52 498.823L561.295 497.241C554.967 502.143 551.82 508.976 551.82 517.616H553.82ZM562.527 498.817C568.367 494.211 576.025 491.864 585.588 491.864V489.864C575.694 489.864 567.565 492.296 561.288 497.247L562.527 498.817ZM585.588 491.864C595.326 491.864 603.067 494.213 608.904 498.817L610.143 497.247C603.863 492.294 595.647 489.864 585.588 489.864V491.864ZM608.911 498.823C614.714 503.317 617.839 509.604 618.253 517.794L620.25 517.694C619.811 508.988 616.451 502.133 610.136 497.241L608.911 498.823ZM619.252 516.744H595.572V518.744H619.252V516.744ZM596.57 517.685C596.385 514.55 595.216 512.013 593.008 510.189L591.735 511.731C593.452 513.15 594.416 515.135 594.573 517.803L596.57 517.685ZM593.028 510.205C590.851 508.313 588.087 507.4 584.819 507.4V509.4C587.696 509.4 589.967 510.194 591.715 511.715L593.028 510.205ZM584.819 507.4C581.984 507.4 579.595 508.182 577.753 509.831L579.086 511.321C580.487 510.068 582.365 509.4 584.819 509.4V507.4ZM577.775 509.811C575.874 511.412 574.988 513.731 574.988 516.592H576.988C576.988 514.162 577.722 512.47 579.064 511.341L577.775 509.811ZM574.988 516.592C574.988 519.885 576.574 522.455 579.573 524.236L580.594 522.516C578.132 521.054 576.988 519.102 576.988 516.592H574.988ZM579.573 524.236C582.402 525.916 586.754 527.692 592.576 529.575L593.191 527.673C587.407 525.801 583.226 524.079 580.594 522.516L579.573 524.236ZM592.563 529.571C598.342 531.526 602.989 533.387 606.516 535.15L607.411 533.362C603.77 531.541 599.03 529.647 593.204 527.677L592.563 529.571ZM606.525 535.155C610.049 536.876 613.088 539.377 615.645 542.677L617.226 541.451C614.492 537.924 611.217 535.22 607.402 533.357L606.525 535.155ZM615.645 542.677C618.124 545.875 619.404 550.038 619.404 555.248H621.404C621.404 549.706 620.038 545.079 617.226 541.451L615.645 542.677ZM619.404 555.248C619.404 560.186 618.131 564.65 615.59 568.665L617.281 569.735C620.031 565.388 621.404 560.55 621.404 555.248H619.404ZM615.583 568.678C613.133 572.68 609.528 575.888 604.724 578.29L605.619 580.078C610.713 577.531 614.618 574.083 617.288 569.722L615.583 568.678ZM604.724 578.29C599.941 580.681 594.255 581.896 587.636 581.896V583.896C594.499 583.896 600.503 582.636 605.619 580.078L604.724 578.29ZM655.762 509.68V508.68H654.762V509.68H655.762ZM655.762 527.856H654.762V528.856H655.762V527.856ZM685.074 527.856H686.074V526.856H685.074V527.856ZM685.074 544.752V545.752H686.074V544.752H685.074ZM655.762 544.752V543.752H654.762V544.752H655.762ZM655.762 564.464H654.762V565.464H655.762V564.464ZM688.914 564.464H689.914V563.464H688.914V564.464ZM688.914 582V583H689.914V582H688.914ZM633.874 582H632.874V583H633.874V582ZM633.874 492.144V491.144H632.874V492.144H633.874ZM688.914 492.144H689.914V491.144H688.914V492.144ZM688.914 509.68V510.68H689.914V509.68H688.914ZM654.762 509.68V527.856H656.762V509.68H654.762ZM655.762 528.856H685.074V526.856H655.762V528.856ZM684.074 527.856V544.752H686.074V527.856H684.074ZM685.074 543.752H655.762V545.752H685.074V543.752ZM654.762 544.752V564.464H656.762V544.752H654.762ZM655.762 565.464H688.914V563.464H655.762V565.464ZM687.914 564.464V582H689.914V564.464H687.914ZM688.914 581H633.874V583H688.914V581ZM634.874 582V492.144H632.874V582H634.874ZM633.874 493.144H688.914V491.144H633.874V493.144ZM687.914 492.144V509.68H689.914V492.144H687.914ZM688.914 508.68H655.762V510.68H688.914V508.68ZM767.764 492.144H768.764V491.144H767.764V492.144ZM767.764 509.68V510.68H768.764V509.68H767.764ZM743.956 509.68V508.68H742.956V509.68H743.956ZM743.956 582V583H744.956V582H743.956ZM722.068 582H721.068V583H722.068V582ZM722.068 509.68H723.068V508.68H722.068V509.68ZM698.26 509.68H697.26V510.68H698.26V509.68ZM698.26 492.144V491.144H697.26V492.144H698.26ZM766.764 492.144V509.68H768.764V492.144H766.764ZM767.764 508.68H743.956V510.68H767.764V508.68ZM742.956 509.68V582H744.956V509.68H742.956ZM743.956 581H722.068V583H743.956V581ZM723.068 582V509.68H721.068V582H723.068ZM722.068 508.68H698.26V510.68H722.068V508.68ZM699.26 509.68V492.144H697.26V509.68H699.26ZM698.26 493.144H767.764V491.144H698.26V493.144ZM800.253 492.144H801.253V491.144H800.253V492.144ZM804.221 558.32L803.482 558.994L803.482 558.994L804.221 558.32ZM827.645 558.32L828.373 559.005L828.373 559.005L827.645 558.32ZM831.741 492.144V491.144H830.741V492.144H831.741ZM853.629 492.144H854.629V491.144H853.629V492.144ZM848.509 566.128L849.36 566.652L849.36 566.652L848.509 566.128ZM834.685 578.672L834.248 577.772L834.243 577.775L834.685 578.672ZM796.413 578.8L795.96 579.692L795.968 579.696L795.976 579.7L796.413 578.8ZM783.229 566.256L782.362 566.755L782.365 566.761L783.229 566.256ZM778.365 492.144V491.144H777.365V492.144H778.365ZM799.253 492.144V545.904H801.253V492.144H799.253ZM799.253 545.904C799.253 551.436 800.615 555.849 803.482 558.994L804.959 557.646C802.536 554.988 801.253 551.124 801.253 545.904H799.253ZM803.482 558.994C806.37 562.161 810.558 563.672 815.869 563.672V561.672C810.939 561.672 807.362 560.281 804.959 557.646L803.482 558.994ZM815.869 563.672C821.181 563.672 825.403 562.161 828.373 559.005L826.916 557.635C824.425 560.282 820.796 561.672 815.869 561.672V563.672ZM828.373 559.005C831.332 555.862 832.741 551.444 832.741 545.904H830.741C830.741 551.116 829.419 554.976 826.916 557.635L828.373 559.005ZM832.741 545.904V492.144H830.741V545.904H832.741ZM831.741 493.144H853.629V491.144H831.741V493.144ZM852.629 492.144V545.776H854.629V492.144H852.629ZM852.629 545.776C852.629 553.655 850.953 560.248 847.657 565.604L849.36 566.652C852.891 560.915 854.629 553.94 854.629 545.776H852.629ZM847.657 565.604C844.342 570.99 839.878 575.04 834.248 577.772L835.121 579.572C841.097 576.672 845.848 572.359 849.36 566.652L847.657 565.604ZM834.243 577.775C828.677 580.516 822.431 581.896 815.485 581.896V583.896C822.703 583.896 829.257 582.46 835.126 579.569L834.243 577.775ZM815.485 581.896C808.533 581.896 802.328 580.557 796.849 577.9L795.976 579.7C801.761 582.505 808.271 583.896 815.485 583.896V581.896ZM796.865 577.908C791.496 575.182 787.241 571.138 784.092 565.751L782.365 566.761C785.701 572.467 790.236 576.786 795.96 579.692L796.865 577.908ZM784.095 565.757C780.958 560.309 779.365 553.663 779.365 545.776H777.365C777.365 553.932 779.014 560.939 782.362 566.755L784.095 565.757ZM779.365 545.776V492.144H777.365V545.776H779.365ZM778.365 493.144H800.253V491.144H778.365V493.144ZM933.895 535.408L934.767 535.897L934.771 535.889L933.895 535.408ZM922.887 545.776L922.415 544.894L922.415 544.894L922.887 545.776ZM890.887 549.744V548.744H889.887V549.744H890.887ZM890.887 582V583H891.887V582H890.887ZM868.999 582H867.999V583H868.999V582ZM868.999 492.144V491.144H867.999V492.144H868.999ZM922.631 495.856L923.078 494.962L923.078 494.962L922.631 495.856ZM890.887 509.808V508.808H889.887V509.808H890.887ZM890.887 532.336H889.887V533.336H890.887V532.336ZM936.479 521.072C936.479 526.118 935.322 530.729 933.018 534.927L934.771 535.889C937.245 531.383 938.479 526.437 938.479 521.072H936.479ZM933.022 534.919C930.739 538.996 927.221 542.325 922.415 544.894L923.358 546.658C928.45 543.936 932.271 540.354 934.767 535.897L933.022 534.919ZM922.415 544.894C917.649 547.442 911.678 548.744 904.455 548.744V550.744C911.909 550.744 918.226 549.401 923.358 546.658L922.415 544.894ZM904.455 548.744H890.887V550.744H904.455V548.744ZM889.887 549.744V582H891.887V549.744H889.887ZM890.887 581H868.999V583H890.887V581ZM869.999 582V492.144H867.999V582H869.999ZM868.999 493.144H904.455V491.144H868.999V493.144ZM904.455 493.144C911.512 493.144 917.408 494.363 922.183 496.75L923.078 494.962C917.955 492.4 911.733 491.144 904.455 491.144V493.144ZM922.183 496.75C926.975 499.146 930.531 502.428 932.897 506.59L934.636 505.602C932.053 501.059 928.185 497.515 923.078 494.962L922.183 496.75ZM932.897 506.59C935.276 510.774 936.479 515.591 936.479 521.072H938.479C938.479 515.289 937.206 510.122 934.636 505.602L932.897 506.59ZM902.791 533.336C907.109 533.336 910.52 532.324 912.826 530.114L911.443 528.67C909.653 530.385 906.835 531.336 902.791 531.336V533.336ZM912.826 530.114C915.12 527.916 916.207 524.852 916.207 521.072H914.207C914.207 524.46 913.245 526.943 911.443 528.67L912.826 530.114ZM916.207 521.072C916.207 517.292 915.12 514.228 912.826 512.03L911.443 513.474C913.245 515.201 914.207 517.684 914.207 521.072H916.207ZM912.826 512.03C910.52 509.82 907.109 508.808 902.791 508.808V510.808C906.835 510.808 909.653 511.759 911.443 513.474L912.826 512.03ZM902.791 508.808H890.887V510.808H902.791V508.808ZM889.887 509.808V532.336H891.887V509.808H889.887ZM890.887 533.336H902.791V531.336H890.887V533.336ZM268.399 727.92L268.114 726.961L268.19 728.898L268.399 727.92ZM280.943 735.728L280.15 736.339L280.157 736.347L280.943 735.728ZM277.743 767.472L278.384 768.239L278.385 768.238L277.743 767.472ZM213.999 774H212.999V775H213.999V774ZM213.999 684.144V683.144H212.999V684.144H213.999ZM275.823 690.416L275.19 691.191L275.196 691.196L275.823 690.416ZM279.407 720.624L278.627 719.997L278.623 720.003L278.618 720.009L279.407 720.624ZM235.887 720.496H234.887V721.496H235.887V720.496ZM258.415 718.192L259.048 718.966L259.051 718.963L258.415 718.192ZM258.415 704.112L257.761 704.869L257.769 704.876L257.778 704.883L258.415 704.112ZM235.887 701.68V700.68H234.887V701.68H235.887ZM260.463 753.904L261.099 754.675L261.103 754.672L260.463 753.904ZM260.335 739.184L259.676 739.937L259.684 739.943L259.691 739.95L260.335 739.184ZM235.887 736.496V735.496H234.887V736.496H235.887ZM235.887 756.336H234.887V757.336H235.887V756.336ZM268.19 728.898C273.171 729.96 277.142 732.436 280.15 736.339L281.735 735.117C278.428 730.828 274.037 728.099 268.607 726.942L268.19 728.898ZM280.157 736.347C283.172 740.177 284.679 744.566 284.679 749.552H286.679C286.679 744.127 285.027 739.3 281.728 735.109L280.157 736.347ZM284.679 749.552C284.679 756.795 282.142 762.477 277.1 766.706L278.385 768.238C283.924 763.593 286.679 757.328 286.679 749.552H284.679ZM277.101 766.705C272.134 770.858 265.096 773 255.855 773V775C265.386 775 272.94 772.79 278.384 768.239L277.101 766.705ZM255.855 773H213.999V775H255.855V773ZM214.999 774V684.144H212.999V774H214.999ZM213.999 685.144H254.447V683.144H213.999V685.144ZM254.447 685.144C263.434 685.144 270.306 687.202 275.19 691.191L276.455 689.641C271.099 685.267 263.721 683.144 254.447 683.144V685.144ZM275.196 691.196C280.146 695.172 282.631 700.549 282.631 707.44H284.631C284.631 699.995 281.91 694.023 276.449 689.636L275.196 691.196ZM282.631 707.44C282.631 712.545 281.276 716.706 278.627 719.997L280.186 721.251C283.169 717.544 284.631 712.916 284.631 707.44H282.631ZM278.618 720.009C276.026 723.329 272.54 725.65 268.114 726.961L268.683 728.879C273.473 727.459 277.325 724.916 280.195 721.239L278.618 720.009ZM235.887 721.496H250.223V719.496H235.887V721.496ZM250.223 721.496C253.931 721.496 256.924 720.704 259.048 718.966L257.781 717.418C256.151 718.752 253.682 719.496 250.223 719.496V721.496ZM259.051 718.963C261.292 717.112 262.359 714.454 262.359 711.152H260.359C260.359 713.994 259.463 716.029 257.778 717.421L259.051 718.963ZM262.359 711.152C262.359 707.85 261.292 705.192 259.051 703.341L257.778 704.883C259.463 706.275 260.359 708.31 260.359 711.152H262.359ZM259.068 703.355C256.943 701.52 253.942 700.68 250.223 700.68V702.68C253.671 702.68 256.131 703.461 257.761 704.869L259.068 703.355ZM250.223 700.68H235.887V702.68H250.223V700.68ZM234.887 701.68V720.496H236.887V701.68H234.887ZM252.015 757.336C255.816 757.336 258.893 756.498 261.099 754.675L259.826 753.133C258.107 754.553 255.552 755.336 252.015 755.336V757.336ZM261.103 754.672C263.421 752.74 264.535 750.002 264.535 746.608H262.535C262.535 749.529 261.6 751.655 259.822 753.136L261.103 754.672ZM264.535 746.608C264.535 743.199 263.369 740.427 260.978 738.418L259.691 739.95C261.567 741.525 262.535 743.702 262.535 746.608H264.535ZM260.993 738.431C258.707 736.432 255.585 735.496 251.759 735.496V737.496C255.271 737.496 257.866 738.352 259.676 739.937L260.993 738.431ZM251.759 735.496H235.887V737.496H251.759V735.496ZM234.887 736.496V756.336H236.887V736.496H234.887ZM235.887 757.336H252.015V755.336H235.887V757.336ZM354.31 758.128L355.257 757.807L355.027 757.128H354.31V758.128ZM320.774 758.128V757.128H320.056L319.826 757.807L320.774 758.128ZM315.398 774V775H316.115L316.345 774.321L315.398 774ZM292.486 774L291.545 773.66L291.06 775H292.486V774ZM324.998 684.144V683.144H324.296L324.057 683.804L324.998 684.144ZM350.342 684.144L351.282 683.804L351.043 683.144H350.342V684.144ZM382.854 774V775H384.279L383.794 773.66L382.854 774ZM359.686 774L358.738 774.321L358.968 775H359.686V774ZM348.678 741.232V742.232H350.072L349.625 740.911L348.678 741.232ZM337.542 708.336L338.489 708.015L337.536 705.201L336.593 708.019L337.542 708.336ZM326.534 741.232L325.585 740.915L325.144 742.232H326.534V741.232ZM354.31 757.128H320.774V759.128H354.31V757.128ZM319.826 757.807L314.45 773.679L316.345 774.321L321.721 758.449L319.826 757.807ZM315.398 773H292.486V775H315.398V773ZM293.426 774.34L325.938 684.484L324.057 683.804L291.545 773.66L293.426 774.34ZM324.998 685.144H350.342V683.144H324.998V685.144ZM349.401 684.484L381.913 774.34L383.794 773.66L351.282 683.804L349.401 684.484ZM382.854 773H359.686V775H382.854V773ZM360.633 773.679L355.257 757.807L353.362 758.449L358.738 774.321L360.633 773.679ZM349.625 740.911L338.489 708.015L336.594 708.657L347.73 741.553L349.625 740.911ZM336.593 708.019L325.585 740.915L327.482 741.549L338.49 708.653L336.593 708.019ZM326.534 742.232H348.678V740.232H326.534V742.232ZM452.396 712.56L451.518 713.037L451.802 713.56H452.396V712.56ZM445.357 705.776L444.879 706.655L444.894 706.663L444.909 706.67L445.357 705.776ZM417.708 710.384L418.442 711.063L418.448 711.057L417.708 710.384ZM417.965 748.4L417.238 749.087L417.244 749.094L417.251 749.1L417.965 748.4ZM450.093 751.216L449.504 750.407L449.495 750.414L450.093 751.216ZM458.285 739.44L459.233 739.756L459.672 738.44H458.285V739.44ZM430.509 739.44H429.509V740.44H430.509V739.44ZM430.509 723.312V722.312H429.509V723.312H430.509ZM478.125 723.312H479.125V722.312H478.125V723.312ZM478.125 743.664L479.083 743.949L479.125 743.809V743.664H478.125ZM469.805 758.896L469.037 758.254L469.031 758.263L469.805 758.896ZM455.085 770.288L454.648 769.388L454.648 769.388L455.085 770.288ZM411.053 768.88L410.559 769.75L410.565 769.753L410.571 769.757L411.053 768.88ZM394.797 752.624L393.922 753.11L393.927 753.118L394.797 752.624ZM394.797 705.264L393.924 704.775L393.922 704.778L394.797 705.264ZM411.053 689.008L411.538 689.882L411.546 689.878L411.053 689.008ZM461.869 690.928L461.29 691.744L461.294 691.747L461.869 690.928ZM476.589 712.56V713.56H477.881L477.556 712.309L476.589 712.56ZM453.275 712.083C451.555 708.914 449.057 706.508 445.804 704.882L444.909 706.67C447.8 708.116 449.995 710.233 451.518 713.037L453.275 712.083ZM445.834 704.897C442.673 703.182 438.961 702.344 434.733 702.344V704.344C438.696 704.344 442.066 705.128 444.879 706.655L445.834 704.897ZM434.733 702.344C427.405 702.344 421.448 704.784 416.969 709.711L418.448 711.057C422.502 706.597 427.895 704.344 434.733 704.344V702.344ZM416.975 709.705C412.499 714.539 410.309 720.989 410.309 728.944H412.309C412.309 721.368 414.385 715.445 418.442 711.063L416.975 709.705ZM410.309 728.944C410.309 737.402 412.58 744.16 417.238 749.087L418.691 747.713C414.475 743.253 412.309 737.041 412.309 728.944H410.309ZM417.251 749.1C422.001 753.94 428.467 756.312 436.525 756.312V754.312C428.88 754.312 422.973 752.076 418.678 747.7L417.251 749.1ZM436.525 756.312C442.077 756.312 446.819 754.899 450.69 752.018L449.495 750.414C446.028 752.995 441.724 754.312 436.525 754.312V756.312ZM450.681 752.025C454.63 749.152 457.472 745.041 459.233 739.756L457.336 739.124C455.684 744.079 453.064 747.818 449.504 750.407L450.681 752.025ZM458.285 738.44H430.509V740.44H458.285V738.44ZM431.509 739.44V723.312H429.509V739.44H431.509ZM430.509 724.312H478.125V722.312H430.509V724.312ZM477.125 723.312V743.664H479.125V723.312H477.125ZM477.166 743.379C475.586 748.7 472.882 753.658 469.037 758.254L470.572 759.538C474.578 754.747 477.42 749.55 479.083 743.949L477.166 743.379ZM469.031 758.263C465.291 762.834 460.503 766.544 454.648 769.388L455.521 771.188C461.613 768.229 466.638 764.345 470.578 759.529L469.031 758.263ZM454.648 769.388C448.827 772.216 442.238 773.64 434.861 773.64V775.64C442.501 775.64 449.395 774.163 455.521 771.188L454.648 769.388ZM434.861 773.64C426.135 773.64 418.368 771.754 411.534 768.003L410.571 769.757C417.732 773.686 425.837 775.64 434.861 775.64V773.64ZM411.546 768.01C404.791 764.174 399.502 758.885 395.666 752.13L393.927 753.118C397.941 760.187 403.49 765.735 410.559 769.75L411.546 768.01ZM395.671 752.138C391.923 745.392 390.036 737.67 390.036 728.944H388.036C388.036 737.967 389.99 746.032 393.922 753.11L395.671 752.138ZM390.036 728.944C390.036 720.218 391.923 712.496 395.671 705.75L393.922 704.778C389.99 711.856 388.036 719.921 388.036 728.944H390.036ZM395.669 705.753C399.505 698.915 404.791 693.631 411.538 689.882L410.567 688.134C403.49 692.065 397.939 697.618 393.924 704.775L395.669 705.753ZM411.546 689.878C418.291 686.047 426.01 684.12 434.733 684.12V682.12C425.705 682.12 417.638 684.118 410.559 688.138L411.546 689.878ZM434.733 684.12C445.319 684.12 454.151 686.68 461.29 691.744L462.447 690.112C454.908 684.765 445.65 682.12 434.733 682.12V684.12ZM461.294 691.747C468.513 696.808 473.288 703.813 475.621 712.811L477.556 712.309C475.111 702.875 470.072 695.458 462.443 690.109L461.294 691.747ZM476.589 711.56H452.396V713.56H476.589V711.56ZM512.137 684.144H513.137V683.144H512.137V684.144ZM512.137 774V775H513.137V774H512.137ZM490.249 774H489.249V775H490.249V774ZM490.249 684.144V683.144H489.249V684.144H490.249ZM511.137 684.144V774H513.137V684.144H511.137ZM512.137 773H490.249V775H512.137V773ZM491.249 774V684.144H489.249V774H491.249ZM490.249 685.144H512.137V683.144H490.249V685.144ZM569.972 771.696L569.592 772.621L569.592 772.621L569.972 771.696ZM557.428 762.224L556.622 762.816L556.629 762.827L557.428 762.224ZM552.564 747.12V746.12H551.534L551.564 747.149L552.564 747.12ZM575.86 747.12L576.854 747.018L576.762 746.12H575.86V747.12ZM579.316 754.8L578.641 755.538L578.65 755.547L578.659 755.555L579.316 754.8ZM594.676 755.184L595.287 755.975L595.298 755.967L595.309 755.958L594.676 755.184ZM595.188 743.408L594.48 744.115L594.49 744.125L594.501 744.135L595.188 743.408ZM589.684 739.824L589.281 740.739L589.287 740.742L589.294 740.745L589.684 739.824ZM580.468 736.624L580.172 737.58L580.182 737.582L580.468 736.624ZM566.26 731.248L565.821 732.147L566.26 731.248ZM556.788 723.312L557.585 722.709L557.585 722.709L556.788 723.312ZM561.908 690.032L562.52 690.823L562.527 690.817L561.908 690.032ZM609.524 690.032L608.904 690.817L608.911 690.823L609.524 690.032ZM619.252 709.744V710.744H620.303L620.25 709.694L619.252 709.744ZM595.572 709.744L594.573 709.803L594.629 710.744H595.572V709.744ZM592.372 702.96L591.715 703.715L591.725 703.723L591.735 703.731L592.372 702.96ZM578.42 702.576L579.064 703.341L579.075 703.331L579.086 703.321L578.42 702.576ZM580.083 715.376L580.594 714.516L580.594 714.516L580.083 715.376ZM592.884 720.624L593.204 719.677L593.191 719.673L592.884 720.624ZM606.964 726.256L606.516 727.15L606.525 727.155L606.964 726.256ZM616.436 734.064L615.645 734.677L615.645 734.677L616.436 734.064ZM616.436 761.2L615.59 760.665L615.586 760.672L615.583 760.678L616.436 761.2ZM605.172 771.184L604.724 770.29L604.724 770.29L605.172 771.184ZM587.636 773.896C581.173 773.896 575.417 772.847 570.351 770.771L569.592 772.621C574.936 774.812 580.956 775.896 587.636 775.896V773.896ZM570.351 770.771C565.299 768.7 561.267 765.649 558.226 761.621L556.629 762.827C559.903 767.162 564.234 770.425 569.592 772.621L570.351 770.771ZM558.233 761.632C555.297 757.636 553.729 752.804 553.563 747.091L551.564 747.149C551.74 753.212 553.414 758.45 556.622 762.816L558.233 761.632ZM552.564 748.12H575.86V746.12H552.564V748.12ZM574.865 747.222C575.224 750.729 576.454 753.541 578.641 755.538L579.99 754.062C578.252 752.475 577.177 750.167 576.854 747.018L574.865 747.222ZM578.659 755.555C580.841 757.452 583.651 758.36 586.996 758.36V756.36C584.025 756.36 581.715 755.562 579.972 754.045L578.659 755.555ZM586.996 758.36C590.379 758.36 593.18 757.603 595.287 755.975L594.064 754.393C592.416 755.666 590.097 756.36 586.996 756.36V758.36ZM595.309 755.958C597.441 754.213 598.492 751.826 598.492 748.912H596.492C596.492 751.288 595.665 753.083 594.042 754.41L595.309 755.958ZM598.492 748.912C598.492 746.434 597.621 744.331 595.874 742.681L594.501 744.135C595.826 745.386 596.492 746.953 596.492 748.912H598.492ZM595.895 742.701C594.338 741.145 592.39 739.883 590.073 738.903L589.294 740.745C591.414 741.642 593.135 742.77 594.48 744.115L595.895 742.701ZM590.086 738.909C587.896 737.945 584.778 736.864 580.753 735.666L580.182 737.582C584.179 738.773 587.204 739.826 589.281 740.739L590.086 738.909ZM580.763 735.669C574.988 733.885 570.305 732.111 566.698 730.349L565.821 732.147C569.553 733.969 574.342 735.779 580.172 737.579L580.763 735.669ZM566.698 730.349C563.18 728.631 560.143 726.092 557.585 722.709L555.99 723.915C558.723 727.53 562 730.281 565.821 732.147L566.698 730.349ZM557.585 722.709C555.104 719.428 553.82 715.093 553.82 709.616H551.82C551.82 715.403 553.18 720.199 555.99 723.915L557.585 722.709ZM553.82 709.616C553.82 701.53 556.73 695.307 562.52 690.823L561.295 689.241C554.967 694.143 551.82 700.976 551.82 709.616H553.82ZM562.527 690.817C568.367 686.211 576.025 683.864 585.588 683.864V681.864C575.694 681.864 567.565 684.296 561.288 689.247L562.527 690.817ZM585.588 683.864C595.326 683.864 603.067 686.213 608.904 690.817L610.143 689.247C603.863 684.294 595.647 681.864 585.588 681.864V683.864ZM608.911 690.823C614.714 695.317 617.839 701.604 618.253 709.794L620.25 709.694C619.811 700.988 616.451 694.133 610.136 689.241L608.911 690.823ZM619.252 708.744H595.572V710.744H619.252V708.744ZM596.57 709.685C596.385 706.55 595.216 704.013 593.008 702.189L591.735 703.731C593.452 705.15 594.416 707.135 594.573 709.803L596.57 709.685ZM593.028 702.205C590.851 700.313 588.087 699.4 584.819 699.4V701.4C587.696 701.4 589.967 702.194 591.715 703.715L593.028 702.205ZM584.819 699.4C581.984 699.4 579.595 700.182 577.753 701.831L579.086 703.321C580.487 702.068 582.365 701.4 584.819 701.4V699.4ZM577.775 701.811C575.874 703.412 574.988 705.731 574.988 708.592H576.988C576.988 706.162 577.722 704.47 579.064 703.341L577.775 701.811ZM574.988 708.592C574.988 711.885 576.574 714.455 579.573 716.236L580.594 714.516C578.132 713.054 576.988 711.102 576.988 708.592H574.988ZM579.573 716.236C582.402 717.916 586.754 719.692 592.576 721.575L593.191 719.673C587.407 717.801 583.226 716.079 580.594 714.516L579.573 716.236ZM592.563 721.571C598.342 723.526 602.989 725.387 606.516 727.15L607.411 725.362C603.77 723.541 599.03 721.647 593.204 719.677L592.563 721.571ZM606.525 727.155C610.049 728.876 613.088 731.377 615.645 734.677L617.226 733.451C614.492 729.924 611.217 727.22 607.402 725.357L606.525 727.155ZM615.645 734.677C618.124 737.875 619.404 742.038 619.404 747.248H621.404C621.404 741.706 620.038 737.079 617.226 733.451L615.645 734.677ZM619.404 747.248C619.404 752.186 618.131 756.65 615.59 760.665L617.281 761.735C620.031 757.388 621.404 752.55 621.404 747.248H619.404ZM615.583 760.678C613.133 764.68 609.528 767.888 604.724 770.29L605.619 772.078C610.713 769.531 614.618 766.083 617.288 761.722L615.583 760.678ZM604.724 770.29C599.941 772.681 594.255 773.896 587.636 773.896V775.896C594.499 775.896 600.503 774.636 605.619 772.078L604.724 770.29ZM655.762 701.68V700.68H654.762V701.68H655.762ZM655.762 719.856H654.762V720.856H655.762V719.856ZM685.074 719.856H686.074V718.856H685.074V719.856ZM685.074 736.752V737.752H686.074V736.752H685.074ZM655.762 736.752V735.752H654.762V736.752H655.762ZM655.762 756.464H654.762V757.464H655.762V756.464ZM688.914 756.464H689.914V755.464H688.914V756.464ZM688.914 774V775H689.914V774H688.914ZM633.874 774H632.874V775H633.874V774ZM633.874 684.144V683.144H632.874V684.144H633.874ZM688.914 684.144H689.914V683.144H688.914V684.144ZM688.914 701.68V702.68H689.914V701.68H688.914ZM654.762 701.68V719.856H656.762V701.68H654.762ZM655.762 720.856H685.074V718.856H655.762V720.856ZM684.074 719.856V736.752H686.074V719.856H684.074ZM685.074 735.752H655.762V737.752H685.074V735.752ZM654.762 736.752V756.464H656.762V736.752H654.762ZM655.762 757.464H688.914V755.464H655.762V757.464ZM687.914 756.464V774H689.914V756.464H687.914ZM688.914 773H633.874V775H688.914V773ZM634.874 774V684.144H632.874V774H634.874ZM633.874 685.144H688.914V683.144H633.874V685.144ZM687.914 684.144V701.68H689.914V684.144H687.914ZM688.914 700.68H655.762V702.68H688.914V700.68ZM767.764 684.144H768.764V683.144H767.764V684.144ZM767.764 701.68V702.68H768.764V701.68H767.764ZM743.956 701.68V700.68H742.956V701.68H743.956ZM743.956 774V775H744.956V774H743.956ZM722.068 774H721.068V775H722.068V774ZM722.068 701.68H723.068V700.68H722.068V701.68ZM698.26 701.68H697.26V702.68H698.26V701.68ZM698.26 684.144V683.144H697.26V684.144H698.26ZM766.764 684.144V701.68H768.764V684.144H766.764ZM767.764 700.68H743.956V702.68H767.764V700.68ZM742.956 701.68V774H744.956V701.68H742.956ZM743.956 773H722.068V775H743.956V773ZM723.068 774V701.68H721.068V774H723.068ZM722.068 700.68H698.26V702.68H722.068V700.68ZM699.26 701.68V684.144H697.26V701.68H699.26ZM698.26 685.144H767.764V683.144H698.26V685.144ZM800.253 684.144H801.253V683.144H800.253V684.144ZM804.221 750.32L803.482 750.994L803.482 750.994L804.221 750.32ZM827.645 750.32L828.373 751.005L828.373 751.005L827.645 750.32ZM831.741 684.144V683.144H830.741V684.144H831.741ZM853.629 684.144H854.629V683.144H853.629V684.144ZM848.509 758.128L849.36 758.652L849.36 758.652L848.509 758.128ZM834.685 770.672L834.248 769.772L834.243 769.775L834.685 770.672ZM796.413 770.8L795.96 771.692L795.968 771.696L795.976 771.7L796.413 770.8ZM783.229 758.256L782.362 758.755L782.365 758.761L783.229 758.256ZM778.365 684.144V683.144H777.365V684.144H778.365ZM799.253 684.144V737.904H801.253V684.144H799.253ZM799.253 737.904C799.253 743.436 800.615 747.849 803.482 750.994L804.959 749.646C802.536 746.988 801.253 743.124 801.253 737.904H799.253ZM803.482 750.994C806.37 754.161 810.558 755.672 815.869 755.672V753.672C810.939 753.672 807.362 752.281 804.959 749.646L803.482 750.994ZM815.869 755.672C821.181 755.672 825.403 754.161 828.373 751.005L826.916 749.635C824.425 752.282 820.796 753.672 815.869 753.672V755.672ZM828.373 751.005C831.332 747.862 832.741 743.444 832.741 737.904H830.741C830.741 743.116 829.419 746.976 826.916 749.635L828.373 751.005ZM832.741 737.904V684.144H830.741V737.904H832.741ZM831.741 685.144H853.629V683.144H831.741V685.144ZM852.629 684.144V737.776H854.629V684.144H852.629ZM852.629 737.776C852.629 745.655 850.953 752.248 847.657 757.604L849.36 758.652C852.891 752.915 854.629 745.94 854.629 737.776H852.629ZM847.657 757.604C844.342 762.99 839.878 767.04 834.248 769.772L835.121 771.572C841.097 768.672 845.848 764.359 849.36 758.652L847.657 757.604ZM834.243 769.775C828.677 772.516 822.431 773.896 815.485 773.896V775.896C822.703 775.896 829.257 774.46 835.126 771.569L834.243 769.775ZM815.485 773.896C808.533 773.896 802.328 772.557 796.849 769.9L795.976 771.7C801.761 774.505 808.271 775.896 815.485 775.896V773.896ZM796.865 769.908C791.496 767.182 787.241 763.138 784.092 757.751L782.365 758.761C785.701 764.467 790.236 768.786 795.96 771.692L796.865 769.908ZM784.095 757.757C780.958 752.309 779.365 745.663 779.365 737.776H777.365C777.365 745.932 779.014 752.939 782.362 758.755L784.095 757.757ZM779.365 737.776V684.144H777.365V737.776H779.365ZM778.365 685.144H800.253V683.144H778.365V685.144ZM933.895 727.408L934.767 727.897L934.771 727.889L933.895 727.408ZM922.887 737.776L922.415 736.894L922.415 736.894L922.887 737.776ZM890.887 741.744V740.744H889.887V741.744H890.887ZM890.887 774V775H891.887V774H890.887ZM868.999 774H867.999V775H868.999V774ZM868.999 684.144V683.144H867.999V684.144H868.999ZM922.631 687.856L923.078 686.962L923.078 686.962L922.631 687.856ZM890.887 701.808V700.808H889.887V701.808H890.887ZM890.887 724.336H889.887V725.336H890.887V724.336ZM936.479 713.072C936.479 718.118 935.322 722.729 933.018 726.927L934.771 727.889C937.245 723.383 938.479 718.437 938.479 713.072H936.479ZM933.022 726.919C930.739 730.996 927.221 734.325 922.415 736.894L923.358 738.658C928.45 735.936 932.271 732.354 934.767 727.897L933.022 726.919ZM922.415 736.894C917.649 739.442 911.678 740.744 904.455 740.744V742.744C911.909 742.744 918.226 741.401 923.358 738.658L922.415 736.894ZM904.455 740.744H890.887V742.744H904.455V740.744ZM889.887 741.744V774H891.887V741.744H889.887ZM890.887 773H868.999V775H890.887V773ZM869.999 774V684.144H867.999V774H869.999ZM868.999 685.144H904.455V683.144H868.999V685.144ZM904.455 685.144C911.512 685.144 917.408 686.363 922.183 688.75L923.078 686.962C917.955 684.4 911.733 683.144 904.455 683.144V685.144ZM922.183 688.75C926.975 691.146 930.531 694.428 932.897 698.59L934.636 697.602C932.053 693.059 928.185 689.515 923.078 686.962L922.183 688.75ZM932.897 698.59C935.276 702.774 936.479 707.591 936.479 713.072H938.479C938.479 707.289 937.206 702.122 934.636 697.602L932.897 698.59ZM902.791 725.336C907.109 725.336 910.52 724.324 912.826 722.114L911.443 720.67C909.653 722.385 906.835 723.336 902.791 723.336V725.336ZM912.826 722.114C915.12 719.916 916.207 716.852 916.207 713.072H914.207C914.207 716.46 913.245 718.943 911.443 720.67L912.826 722.114ZM916.207 713.072C916.207 709.292 915.12 706.228 912.826 704.03L911.443 705.474C913.245 707.201 914.207 709.684 914.207 713.072H916.207ZM912.826 704.03C910.52 701.82 907.109 700.808 902.791 700.808V702.808C906.835 702.808 909.653 703.759 911.443 705.474L912.826 704.03ZM902.791 700.808H890.887V702.808H902.791V700.808ZM889.887 701.808V724.336H891.887V701.808H889.887ZM890.887 725.336H902.791V723.336H890.887V725.336Z" fill="white" mask="url(#path-2-outside-1_327_2937)"/>
</g>
<defs>
<filter id="filter0_f_327_2937" x="-216.2" y="0.799988" width="1872.4" height="1077.4" filterUnits="userSpaceOnUse" color-interpolation-filters="sRGB">
<feFlood flood-opacity="0" result="BackgroundImageFix"/>
<feBlend mode="normal" in="SourceGraphic" in2="BackgroundImageFix" result="shape"/>
<feGaussianBlur stdDeviation="130.6" result="effect1_foregroundBlur_327_2937"/>
</filter>
</defs>
</svg>
