<svg width="1122" height="103" viewBox="0 0 1122 103" fill="none" xmlns="http://www.w3.org/2000/svg">
<rect y="31" width="1122" height="8" fill="#D9D9D9"/>
<rect x="55" y="35.3552" width="50" height="50" transform="rotate(-45 55 35.3552)" fill="#D9D9D9"/>
<rect x="343" y="35.3552" width="50" height="50" transform="rotate(-45 343 35.3552)" fill="#D9D9D9"/>
<rect x="631" y="35.3552" width="50" height="50" transform="rotate(-45 631 35.3552)" fill="#D9D9D9"/>
<rect x="939" y="35.3552" width="50" height="50" transform="rotate(-45 939 35.3552)" fill="#D9D9D9"/>
<path d="M71.816 96.12C73.7787 94.648 75.2933 93.3307 76.36 92.168C77.4373 90.9947 77.976 89.848 77.976 88.728C77.976 87.992 77.7893 87.4053 77.416 86.968C77.0533 86.52 76.456 86.296 75.624 86.296C74.8133 86.296 74.184 86.552 73.736 87.064C73.2987 87.5653 73.0533 88.2373 73 89.08H71.912C71.976 87.896 72.3387 86.9787 73 86.328C73.672 85.6667 74.5467 85.336 75.624 85.336C76.6587 85.336 77.496 85.6293 78.136 86.216C78.776 86.792 79.096 87.6133 79.096 88.68C79.096 89.9707 78.5573 91.224 77.48 92.44C76.4133 93.6453 75.096 94.824 73.528 95.976H79.448V96.92H71.816V96.12ZM81.1963 91.16C81.1963 89.3253 81.4789 87.9013 82.0443 86.888C82.6096 85.8747 83.6229 85.368 85.0843 85.368C86.5456 85.368 87.5589 85.8747 88.1243 86.888C88.6896 87.9013 88.9722 89.3253 88.9722 91.16C88.9722 93.0267 88.6896 94.472 88.1243 95.496C87.5589 96.52 86.5456 97.032 85.0843 97.032C83.6123 97.032 82.5936 96.52 82.0283 95.496C81.4736 94.472 81.1963 93.0267 81.1963 91.16ZM87.8683 91.16C87.8683 90.168 87.7989 89.3307 87.6603 88.648C87.5216 87.9653 87.2496 87.416 86.8443 87C86.4389 86.584 85.8523 86.376 85.0843 86.376C84.3163 86.376 83.7296 86.584 83.3243 87C82.9189 87.416 82.6469 87.9653 82.5082 88.648C82.3696 89.3307 82.3003 90.168 82.3003 91.16C82.3003 92.184 82.3696 93.0427 82.5082 93.736C82.6469 94.4187 82.9189 94.968 83.3243 95.384C83.7296 95.8 84.3163 96.008 85.0843 96.008C85.8523 96.008 86.4389 95.8 86.8443 95.384C87.2496 94.968 87.5216 94.4187 87.6603 93.736C87.7989 93.0427 87.8683 92.184 87.8683 91.16ZM90.5116 86.536V85.528H93.2316V97H92.0956V86.536H90.5116ZM97.2155 93.944C97.3328 94.6373 97.5995 95.1707 98.0155 95.544C98.4315 95.9173 99.0022 96.104 99.7275 96.104C100.73 96.104 101.472 95.7147 101.952 94.936C102.442 94.1467 102.666 92.8453 102.624 91.032C102.421 91.6187 102.032 92.0827 101.456 92.424C100.89 92.7547 100.24 92.92 99.5035 92.92C98.3835 92.92 97.4822 92.584 96.7995 91.912C96.1275 91.24 95.7915 90.3067 95.7915 89.112C95.7915 88.3973 95.9302 87.752 96.2075 87.176C96.4848 86.6 96.9062 86.1467 97.4715 85.816C98.0368 85.4853 98.7302 85.32 99.5515 85.32C101.066 85.32 102.122 85.816 102.72 86.808C103.317 87.7893 103.616 89.2027 103.616 91.048C103.616 93.0427 103.317 94.5413 102.72 95.544C102.133 96.5467 101.12 97.048 99.6795 97.048C98.6235 97.048 97.8022 96.7653 97.2155 96.2C96.6288 95.624 96.2822 94.872 96.1755 93.944H97.2155ZM99.6795 91.96C100.181 91.96 100.64 91.8587 101.056 91.656C101.482 91.4427 101.824 91.1333 102.08 90.728C102.336 90.3227 102.464 89.8373 102.464 89.272C102.464 88.3973 102.213 87.6773 101.712 87.112C101.221 86.5467 100.512 86.264 99.5835 86.264C98.7622 86.264 98.1008 86.52 97.5995 87.032C97.1088 87.544 96.8635 88.2267 96.8635 89.08C96.8635 89.976 97.1088 90.68 97.5995 91.192C98.0902 91.704 98.7835 91.96 99.6795 91.96Z" fill="white"/>
<path d="M361.816 96.12C363.779 94.648 365.293 93.3307 366.36 92.168C367.437 90.9947 367.976 89.848 367.976 88.728C367.976 87.992 367.789 87.4053 367.416 86.968C367.053 86.52 366.456 86.296 365.624 86.296C364.813 86.296 364.184 86.552 363.736 87.064C363.299 87.5653 363.053 88.2373 363 89.08H361.912C361.976 87.896 362.339 86.9787 363 86.328C363.672 85.6667 364.547 85.336 365.624 85.336C366.659 85.336 367.496 85.6293 368.136 86.216C368.776 86.792 369.096 87.6133 369.096 88.68C369.096 89.9707 368.557 91.224 367.48 92.44C366.413 93.6453 365.096 94.824 363.528 95.976H369.448V96.92H361.816V96.12ZM371.196 91.16C371.196 89.3253 371.479 87.9013 372.044 86.888C372.61 85.8747 373.623 85.368 375.084 85.368C376.546 85.368 377.559 85.8747 378.124 86.888C378.69 87.9013 378.972 89.3253 378.972 91.16C378.972 93.0267 378.69 94.472 378.124 95.496C377.559 96.52 376.546 97.032 375.084 97.032C373.612 97.032 372.594 96.52 372.028 95.496C371.474 94.472 371.196 93.0267 371.196 91.16ZM377.868 91.16C377.868 90.168 377.799 89.3307 377.66 88.648C377.522 87.9653 377.25 87.416 376.844 87C376.439 86.584 375.852 86.376 375.084 86.376C374.316 86.376 373.73 86.584 373.324 87C372.919 87.416 372.647 87.9653 372.508 88.648C372.37 89.3307 372.3 90.168 372.3 91.16C372.3 92.184 372.37 93.0427 372.508 93.736C372.647 94.4187 372.919 94.968 373.324 95.384C373.73 95.8 374.316 96.008 375.084 96.008C375.852 96.008 376.439 95.8 376.844 95.384C377.25 94.968 377.522 94.4187 377.66 93.736C377.799 93.0427 377.868 92.184 377.868 91.16ZM380.832 96.12C382.794 94.648 384.309 93.3307 385.376 92.168C386.453 90.9947 386.992 89.848 386.992 88.728C386.992 87.992 386.805 87.4053 386.432 86.968C386.069 86.52 385.472 86.296 384.64 86.296C383.829 86.296 383.2 86.552 382.752 87.064C382.314 87.5653 382.069 88.2373 382.016 89.08H380.928C380.992 87.896 381.354 86.9787 382.016 86.328C382.688 85.6667 383.562 85.336 384.64 85.336C385.674 85.336 386.512 85.6293 387.152 86.216C387.792 86.792 388.112 87.6133 388.112 88.68C388.112 89.9707 387.573 91.224 386.496 92.44C385.429 93.6453 384.112 94.824 382.544 95.976H388.464V96.92H380.832V96.12ZM390.212 91.16C390.212 89.3253 390.495 87.9013 391.06 86.888C391.625 85.8747 392.639 85.368 394.1 85.368C395.561 85.368 396.575 85.8747 397.14 86.888C397.705 87.9013 397.988 89.3253 397.988 91.16C397.988 93.0267 397.705 94.472 397.14 95.496C396.575 96.52 395.561 97.032 394.1 97.032C392.628 97.032 391.609 96.52 391.044 95.496C390.489 94.472 390.212 93.0267 390.212 91.16ZM396.884 91.16C396.884 90.168 396.815 89.3307 396.676 88.648C396.537 87.9653 396.265 87.416 395.86 87C395.455 86.584 394.868 86.376 394.1 86.376C393.332 86.376 392.745 86.584 392.34 87C391.935 87.416 391.663 87.9653 391.524 88.648C391.385 89.3307 391.316 90.168 391.316 91.16C391.316 92.184 391.385 93.0427 391.524 93.736C391.663 94.4187 391.935 94.968 392.34 95.384C392.745 95.8 393.332 96.008 394.1 96.008C394.868 96.008 395.455 95.8 395.86 95.384C396.265 94.968 396.537 94.4187 396.676 93.736C396.815 93.0427 396.884 92.184 396.884 91.16Z" fill="white"/>
<path d="M646.816 96.12C648.779 94.648 650.293 93.3307 651.36 92.168C652.437 90.9947 652.976 89.848 652.976 88.728C652.976 87.992 652.789 87.4053 652.416 86.968C652.053 86.52 651.456 86.296 650.624 86.296C649.813 86.296 649.184 86.552 648.736 87.064C648.299 87.5653 648.053 88.2373 648 89.08H646.912C646.976 87.896 647.339 86.9787 648 86.328C648.672 85.6667 649.547 85.336 650.624 85.336C651.659 85.336 652.496 85.6293 653.136 86.216C653.776 86.792 654.096 87.6133 654.096 88.68C654.096 89.9707 653.557 91.224 652.48 92.44C651.413 93.6453 650.096 94.824 648.528 95.976H654.448V96.92H646.816V96.12ZM656.196 91.16C656.196 89.3253 656.479 87.9013 657.044 86.888C657.61 85.8747 658.623 85.368 660.084 85.368C661.546 85.368 662.559 85.8747 663.124 86.888C663.69 87.9013 663.972 89.3253 663.972 91.16C663.972 93.0267 663.69 94.472 663.124 95.496C662.559 96.52 661.546 97.032 660.084 97.032C658.612 97.032 657.594 96.52 657.028 95.496C656.474 94.472 656.196 93.0267 656.196 91.16ZM662.868 91.16C662.868 90.168 662.799 89.3307 662.66 88.648C662.522 87.9653 662.25 87.416 661.844 87C661.439 86.584 660.852 86.376 660.084 86.376C659.316 86.376 658.73 86.584 658.324 87C657.919 87.416 657.647 87.9653 657.508 88.648C657.37 89.3307 657.3 90.168 657.3 91.16C657.3 92.184 657.37 93.0427 657.508 93.736C657.647 94.4187 657.919 94.968 658.324 95.384C658.73 95.8 659.316 96.008 660.084 96.008C660.852 96.008 661.439 95.8 661.844 95.384C662.25 94.968 662.522 94.4187 662.66 93.736C662.799 93.0427 662.868 92.184 662.868 91.16ZM665.832 96.12C667.794 94.648 669.309 93.3307 670.376 92.168C671.453 90.9947 671.992 89.848 671.992 88.728C671.992 87.992 671.805 87.4053 671.432 86.968C671.069 86.52 670.472 86.296 669.64 86.296C668.829 86.296 668.2 86.552 667.752 87.064C667.314 87.5653 667.069 88.2373 667.016 89.08H665.928C665.992 87.896 666.354 86.9787 667.016 86.328C667.688 85.6667 668.562 85.336 669.64 85.336C670.674 85.336 671.512 85.6293 672.152 86.216C672.792 86.792 673.112 87.6133 673.112 88.68C673.112 89.9707 672.573 91.224 671.496 92.44C670.429 93.6453 669.112 94.824 667.544 95.976H673.464V96.92H665.832V96.12ZM674.668 86.536V85.528H677.388V97H676.252V86.536H674.668Z" fill="white"/>
<path d="M957.816 96.12C959.779 94.648 961.293 93.3307 962.36 92.168C963.437 90.9947 963.976 89.848 963.976 88.728C963.976 87.992 963.789 87.4053 963.416 86.968C963.053 86.52 962.456 86.296 961.624 86.296C960.813 86.296 960.184 86.552 959.736 87.064C959.299 87.5653 959.053 88.2373 959 89.08H957.912C957.976 87.896 958.339 86.9787 959 86.328C959.672 85.6667 960.547 85.336 961.624 85.336C962.659 85.336 963.496 85.6293 964.136 86.216C964.776 86.792 965.096 87.6133 965.096 88.68C965.096 89.9707 964.557 91.224 963.48 92.44C962.413 93.6453 961.096 94.824 959.528 95.976H965.448V96.92H957.816V96.12ZM967.196 91.16C967.196 89.3253 967.479 87.9013 968.044 86.888C968.61 85.8747 969.623 85.368 971.084 85.368C972.546 85.368 973.559 85.8747 974.124 86.888C974.69 87.9013 974.972 89.3253 974.972 91.16C974.972 93.0267 974.69 94.472 974.124 95.496C973.559 96.52 972.546 97.032 971.084 97.032C969.612 97.032 968.594 96.52 968.028 95.496C967.474 94.472 967.196 93.0267 967.196 91.16ZM973.868 91.16C973.868 90.168 973.799 89.3307 973.66 88.648C973.522 87.9653 973.25 87.416 972.844 87C972.439 86.584 971.852 86.376 971.084 86.376C970.316 86.376 969.73 86.584 969.324 87C968.919 87.416 968.647 87.9653 968.508 88.648C968.37 89.3307 968.3 90.168 968.3 91.16C968.3 92.184 968.37 93.0427 968.508 93.736C968.647 94.4187 968.919 94.968 969.324 95.384C969.73 95.8 970.316 96.008 971.084 96.008C971.852 96.008 972.439 95.8 972.844 95.384C973.25 94.968 973.522 94.4187 973.66 93.736C973.799 93.0427 973.868 92.184 973.868 91.16ZM976.832 96.12C978.794 94.648 980.309 93.3307 981.376 92.168C982.453 90.9947 982.992 89.848 982.992 88.728C982.992 87.992 982.805 87.4053 982.432 86.968C982.069 86.52 981.472 86.296 980.64 86.296C979.829 86.296 979.2 86.552 978.752 87.064C978.314 87.5653 978.069 88.2373 978.016 89.08H976.928C976.992 87.896 977.354 86.9787 978.016 86.328C978.688 85.6667 979.562 85.336 980.64 85.336C981.674 85.336 982.512 85.6293 983.152 86.216C983.792 86.792 984.112 87.6133 984.112 88.68C984.112 89.9707 983.573 91.224 982.496 92.44C981.429 93.6453 980.112 94.824 978.544 95.976H984.464V96.92H976.832V96.12ZM985.988 96.12C987.951 94.648 989.465 93.3307 990.532 92.168C991.609 90.9947 992.148 89.848 992.148 88.728C992.148 87.992 991.961 87.4053 991.588 86.968C991.225 86.52 990.628 86.296 989.796 86.296C988.985 86.296 988.356 86.552 987.908 87.064C987.471 87.5653 987.225 88.2373 987.172 89.08H986.084C986.148 87.896 986.511 86.9787 987.172 86.328C987.844 85.6667 988.719 85.336 989.796 85.336C990.831 85.336 991.668 85.6293 992.308 86.216C992.948 86.792 993.268 87.6133 993.268 88.68C993.268 89.9707 992.729 91.224 991.652 92.44C990.585 93.6453 989.268 94.824 987.7 95.976H993.62V96.92H985.988V96.12Z" fill="white"/>
</svg>
